<svg xmlns="http://www.w3.org/2000/svg" version="1.0" width="1280.000000pt" height="1148.000000pt" viewBox="0 0 1280.000000 1148.000000" preserveAspectRatio="xMidYMid meet">
<metadata>
Created by potrace 1.15, written by Peter Selinger 2001-2017
</metadata>
<g transform="translate(0.000000,1148.000000) scale(0.100000,-0.100000)" fill="#000000" stroke="none">
<path d="M10832 11440 c-79 -51 -105 -90 -98 -148 7 -56 48 -173 103 -296 24 -54 49 -123 54 -152 6 -30 28 -101 49 -158 110 -294 149 -603 129 -1048 -15 -364 -49 -570 -140 -867 -66 -217 -88 -274 -176 -466 -96 -207 -162 -332 -315 -595 -69 -118 -153 -265 -188 -327 -83 -148 -178 -273 -410 -538 -328 -375 -420 -461 -767 -721 -290 -218 -338 -257 -493 -403 -69 -65 -161 -149 -205 -188 -44 -38 -112 -101 -152 -139 -39 -38 -96 -92 -126 -121 -166 -156 -406 -538 -452 -718 -44 -176 -57 -398 -31 -555 32 -194 99 -311 232 -400 128 -86 149 -126 149 -275 -1 -103 -2 -114 -30 -165 -50 -92 -201 -234 -340 -320 -143 -88 -210 -152 -254 -240 -49 -100 -60 -159 -72 -364 l-10 -189 -89 -111 c-113 -141 -134 -183 -165 -335 -14 -68 -25 -126 -25 -128 0 -2 -62 -65 -138 -141 -139 -139 -242 -273 -242 -316 0 -28 36 -82 71 -109 36 -26 94 -36 214 -37 130 0 239 14 389 50 224 55 362 31 435 -76 42 -61 62 -149 121 -537 11 -77 53 -176 95 -225 73 -86 239 -109 317 -44 l32 27 171 -3 172 -4 61 31 c54 27 101 67 155 130 26 32 79 27 153 -14 70 -39 115 -44 201 -21 81 22 140 54 171 94 68 87 112 216 112 332 0 43 3 86 6 95 12 30 60 45 143 45 187 0 305 60 370 189 48 93 54 235 20 433 -18 104 -20 132 -10 154 9 21 16 25 34 20 148 -43 230 -45 332 -11 62 21 85 41 85 72 0 14 13 36 29 51 64 60 93 176 96 382 3 174 1 160 25 160 26 0 147 42 335 117 83 33 182 71 220 83 123 40 247 116 455 279 210 165 294 260 381 431 45 88 47 103 38 235 -2 20 14 63 46 125 108 209 114 226 154 395 30 126 45 224 60 380 23 232 31 271 120 525 43 123 67 212 81 300 19 112 27 137 81 247 68 138 137 340 170 494 30 140 33 401 5 499 -26 93 -67 176 -125 248 l-51 62 0 419 0 419 -113 284 c-63 156 -134 321 -158 368 l-44 85 1 130 c1 72 8 189 17 260 25 199 25 214 11 300 -32 191 -82 353 -160 519 -87 183 -106 218 -184 336 -92 140 -98 151 -118 250 -28 139 -87 277 -149 354 -37 45 -49 74 -98 235 -25 84 -62 187 -81 229 -120 263 -492 672 -611 672 -11 0 -48 -18 -81 -40z m274 -464 c69 -51 204 -189 256 -261 113 -158 168 -360 168 -617 0 -148 10 -199 35 -178 18 15 49 98 65 174 10 49 14 56 22 41 45 -79 93 -598 69 -733 -21 -112 -102 -271 -192 -378 -26 -32 -51 -70 -55 -87 -12 -56 10 -53 109 17 52 36 98 66 102 66 19 0 -28 -283 -89 -533 -34 -140 -114 -251 -283 -389 -40 -32 -73 -64 -73 -69 0 -25 124 27 198 82 29 23 57 38 60 34 10 -10 5 -115 -7 -128 -5 -7 -57 -106 -115 -222 -58 -115 -114 -219 -124 -230 -9 -11 -46 -35 -82 -52 -71 -35 -141 -94 -121 -101 7 -2 34 8 61 22 63 34 80 34 80 -3 0 -58 -228 -466 -278 -499 -15 -9 -63 -44 -108 -78 -50 -38 -97 -65 -126 -72 -47 -12 -103 -63 -95 -86 7 -19 69 -10 159 23 49 18 92 30 98 26 17 -10 -89 -161 -236 -335 -90 -108 -89 -107 -187 -146 -94 -39 -97 -39 -97 -19 0 8 -7 15 -15 15 -28 0 -33 33 -18 145 20 157 22 466 4 489 -13 15 -16 15 -29 2 -11 -11 -18 -65 -27 -223 -11 -182 -16 -217 -40 -283 -59 -164 -132 -292 -317 -555 -112 -159 -541 -557 -763 -707 -49 -34 -122 -83 -160 -109 -83 -56 -143 -84 -205 -94 -154 -24 -272 -143 -274 -275 -1 -49 1 -55 21 -58 16 -2 41 15 90 64 98 97 148 113 229 74 56 -27 119 -98 152 -168 24 -50 27 -69 27 -162 0 -100 -2 -109 -36 -180 -21 -44 -55 -94 -82 -122 -46 -45 -73 -59 -189 -92 -63 -18 -77 -37 -48 -66 23 -23 56 -25 165 -9 59 9 85 9 121 -1 60 -17 133 -84 171 -157 38 -71 73 -187 73 -240 0 -64 -96 -248 -172 -329 l-29 -31 -87 29 c-159 52 -192 49 -192 -21 0 -45 39 -109 104 -170 26 -24 58 -66 72 -94 33 -64 57 -180 50 -235 -14 -104 -87 -201 -189 -252 -78 -39 -121 -40 -143 -2 -88 146 -145 208 -178 196 -38 -14 -30 -51 42 -202 86 -178 106 -243 106 -342 -1 -117 -46 -186 -148 -225 -67 -26 -100 -10 -217 101 -114 109 -140 118 -165 58 -19 -45 -13 -73 32 -146 67 -111 96 -242 80 -371 -10 -78 -38 -116 -117 -155 -117 -59 -176 -44 -234 59 -31 54 -57 69 -63 36 -8 -42 92 -387 139 -479 11 -22 25 -38 32 -35 20 6 19 81 -2 143 -47 134 20 39 101 -143 75 -167 89 -189 111 -180 23 9 22 46 -3 159 -25 111 -23 154 5 93 46 -102 108 -370 155 -669 l22 -138 -50 -51 c-63 -63 -96 -67 -148 -16 -93 89 -124 164 -154 370 -27 190 -48 269 -114 419 -70 163 -73 165 -219 165 -126 -1 -225 -24 -326 -75 -71 -35 -184 -52 -364 -54 -117 -1 -130 1 -143 19 -19 25 -11 63 27 136 43 80 111 147 185 180 35 16 70 40 79 53 8 13 22 57 30 98 19 102 38 154 101 287 45 95 64 123 118 175 79 75 86 98 86 275 0 302 40 379 268 519 138 86 186 122 264 199 81 79 138 161 168 241 20 52 22 71 17 212 -3 127 -8 167 -27 222 -37 109 -100 168 -181 168 -102 0 -220 272 -206 475 12 172 130 513 228 659 68 101 172 229 254 311 39 39 77 85 87 102 9 17 58 63 110 101 51 37 120 94 153 126 71 68 186 161 590 478 354 278 442 352 593 500 178 175 392 435 577 703 113 162 376 618 492 850 162 322 291 706 368 1090 57 286 69 394 69 665 1 237 0 252 -37 480 -54 337 -69 399 -139 589 -27 74 -47 140 -44 147 10 26 54 14 112 -30z m821 -1428 c190 -294 298 -623 272 -832 -21 -168 -84 -320 -213 -514 -108 -162 -88 -172 62 -30 46 43 90 78 98 78 24 0 17 -95 -21 -282 -44 -217 -92 -369 -152 -489 -40 -80 -61 -108 -145 -191 -54 -53 -98 -101 -98 -107 0 -27 50 -8 164 61 43 27 81 46 84 43 14 -14 -89 -289 -161 -431 -24 -47 -148 -166 -300 -288 -53 -43 -97 -82 -97 -87 0 -20 70 -7 139 26 40 19 75 35 77 35 24 0 -91 -237 -175 -361 -50 -72 -71 -92 -182 -173 -157 -113 -241 -185 -233 -198 4 -6 30 -8 62 -6 45 4 58 10 74 31 18 25 58 38 58 19 0 -31 -292 -415 -372 -489 -36 -34 -91 -53 -151 -53 -103 0 -99 10 78 239 119 153 185 254 185 283 0 31 -17 20 -71 -48 -29 -36 -80 -89 -113 -117 -56 -46 -61 -49 -64 -29 -5 34 54 134 167 287 159 213 210 295 332 536 21 42 44 127 36 135 -11 12 -27 -9 -111 -145 -103 -166 -246 -380 -293 -439 -39 -48 -53 -49 -64 -7 -11 38 7 77 100 220 162 248 383 667 524 992 139 320 295 831 347 1140 19 109 19 166 0 147 -5 -5 -25 -72 -44 -149 -19 -77 -42 -158 -50 -180 l-15 -40 0 42 c-1 23 13 95 30 160 16 65 35 141 40 168 35 179 93 684 104 900 7 150 15 245 21 245 2 0 34 -46 71 -102z m-292 -1500 c-25 -120 -186 -562 -282 -778 -108 -242 -333 -676 -442 -854 -20 -33 -58 -103 -86 -155 -27 -52 -56 -97 -62 -99 -7 -2 -18 8 -24 21 -17 38 -3 69 115 245 263 397 486 857 681 1407 59 166 91 245 100 245 4 0 4 -15 0 -32z m689 -175 c32 -49 90 -222 117 -349 11 -55 23 -157 26 -230 5 -119 3 -139 -21 -234 -32 -126 -79 -236 -135 -318 -39 -58 -51 -92 -33 -92 5 0 40 20 78 45 107 69 108 69 69 -108 -31 -146 -117 -382 -192 -531 -35 -70 -192 -228 -256 -259 -63 -30 -102 -69 -93 -93 8 -22 72 -13 142 21 88 43 92 34 33 -75 -70 -129 -150 -242 -223 -316 -60 -60 -89 -80 -181 -124 -106 -50 -145 -75 -145 -91 0 -15 65 -29 132 -29 l69 0 -33 -46 c-49 -69 -155 -164 -239 -216 -68 -42 -104 -57 -181 -73 -16 -3 -28 -10 -28 -16 0 -10 96 -59 118 -59 6 0 12 -4 12 -8 0 -11 -291 -296 -360 -353 -144 -118 -163 -105 -80 56 28 54 50 103 50 110 0 8 16 64 36 127 19 62 44 154 54 205 24 124 43 158 162 298 116 135 232 287 271 356 27 46 36 86 17 74 -6 -4 -93 -102 -194 -219 -179 -206 -236 -263 -236 -233 0 23 98 163 252 358 235 299 323 432 481 724 94 174 195 396 256 564 74 202 64 250 -14 64 -94 -228 -280 -574 -450 -838 -59 -92 -216 -301 -319 -425 -97 -117 -263 -286 -272 -278 -9 10 21 55 209 308 284 381 382 541 536 870 221 471 357 850 451 1258 22 96 45 183 51 193 15 29 36 23 63 -18z m270 -1525 c57 -115 68 -171 69 -368 0 -230 -32 -343 -179 -624 -81 -156 -105 -187 -232 -294 -66 -57 -81 -92 -39 -92 31 0 91 41 165 113 33 31 62 57 65 57 7 0 -20 -142 -38 -195 -64 -189 -237 -433 -366 -516 -28 -17 -107 -54 -177 -81 -201 -77 -215 -113 -40 -105 l97 5 -45 -90 c-55 -110 -102 -162 -206 -229 -102 -65 -154 -88 -230 -100 -33 -5 -74 -17 -90 -25 -29 -15 -29 -16 -12 -35 10 -11 44 -35 76 -53 l59 -33 -78 -60 c-111 -86 -130 -94 -247 -102 -139 -10 -151 -19 -95 -77 18 -19 29 -39 26 -47 -7 -18 -196 -127 -220 -127 -22 0 -21 8 4 67 17 39 21 70 23 168 l1 119 80 55 c111 75 234 177 338 278 90 88 125 137 107 148 -15 9 -37 -6 -210 -144 -89 -71 -178 -137 -198 -147 -21 -10 -60 -34 -89 -52 -54 -36 -83 -37 -83 -4 0 24 44 65 160 147 141 101 247 195 431 382 242 246 380 408 412 485 8 19 48 69 89 109 77 77 149 184 231 344 54 106 60 125 47 145 -16 25 -39 1 -107 -109 -147 -240 -513 -683 -764 -926 -241 -233 -611 -502 -663 -482 -37 14 -18 33 159 163 330 240 753 686 1088 1147 234 320 418 688 577 1155 23 67 46 122 50 122 4 0 29 -42 54 -92z m-2026 -294 c46 -53 55 -99 49 -239 -13 -262 -84 -466 -255 -724 -89 -135 -123 -170 -347 -358 -257 -215 -440 -347 -605 -436 -71 -38 -229 -97 -262 -97 -19 0 -20 4 -14 47 12 89 38 112 333 297 240 150 332 218 333 249 1 25 -69 -7 -302 -139 -226 -128 -366 -202 -373 -196 -7 7 -7 56 1 76 3 9 32 30 63 46 169 90 551 427 551 486 0 20 -24 17 -45 -6 -10 -11 -41 -33 -69 -49 -28 -16 -100 -66 -161 -112 -150 -112 -322 -228 -352 -235 -13 -4 -27 -3 -31 0 -17 18 36 70 168 163 207 147 347 260 397 321 35 43 43 60 43 93 l0 41 -44 -34 c-24 -18 -100 -79 -168 -134 -138 -113 -326 -244 -403 -280 -55 -26 -115 -32 -115 -11 0 20 53 66 180 158 347 250 657 542 880 829 119 153 181 212 263 250 68 32 175 50 222 38 17 -4 45 -24 63 -44z m289 -981 c92 -67 95 -217 11 -483 -16 -52 -41 -114 -54 -137 -13 -23 -24 -51 -24 -62 0 -11 -8 -28 -19 -38 -10 -10 -23 -34 -30 -53 -6 -19 -24 -44 -40 -54 -16 -11 -62 -57 -102 -103 -47 -53 -94 -95 -129 -115 -30 -17 -106 -65 -170 -108 -225 -150 -382 -220 -605 -270 -77 -17 -176 -40 -219 -51 -106 -27 -174 -28 -192 -4 -8 10 -14 32 -14 47 0 36 22 49 210 129 266 113 372 176 406 240 32 62 -4 53 -326 -84 -186 -79 -275 -106 -291 -90 -17 17 61 74 208 154 164 88 275 161 359 235 155 136 110 152 -92 33 -229 -134 -557 -290 -574 -273 -21 21 28 55 249 178 457 254 825 542 1023 801 83 109 144 136 295 132 75 -2 98 -7 120 -24z m1387 -769 c9 -89 0 -165 -36 -314 -52 -214 -103 -336 -184 -437 -26 -32 -104 -116 -173 -186 l-126 -129 23 -18 c27 -22 33 -21 129 28 39 20 75 34 78 30 15 -15 -7 -56 -72 -138 -87 -109 -224 -247 -288 -290 -92 -63 -148 -79 -263 -80 -107 0 -142 -9 -142 -37 0 -22 39 -63 61 -63 64 0 64 -35 0 -92 -63 -57 -165 -111 -289 -153 -53 -18 -146 -54 -207 -80 -68 -30 -130 -50 -163 -53 -50 -4 -54 -3 -87 32 -44 47 -54 82 -29 101 11 8 62 37 115 65 53 27 102 56 108 64 18 21 5 36 -30 36 -16 0 -29 3 -29 8 0 4 52 42 115 86 63 43 115 82 115 87 0 15 -33 10 -155 -21 -115 -30 -175 -37 -175 -22 0 4 42 25 93 46 283 118 672 357 813 502 106 108 209 243 195 257 -12 12 -10 13 -148 -94 -231 -179 -559 -368 -864 -498 -98 -42 -129 -49 -129 -31 0 33 133 110 300 173 56 22 126 59 170 90 41 29 139 94 218 145 378 243 652 509 912 887 82 121 118 165 130 165 4 0 10 -30 14 -66z m-1721 -559 c38 -8 87 -25 110 -37 36 -20 44 -31 56 -73 48 -171 0 -345 -131 -471 -153 -149 -381 -258 -593 -283 -49 -6 -197 -16 -328 -22 -215 -11 -245 -11 -305 4 -37 9 -105 22 -152 27 -100 13 -154 36 -158 67 -3 19 2 22 50 27 29 3 141 8 248 10 221 6 272 16 385 72 87 44 173 113 141 114 -11 0 -42 -11 -71 -24 -80 -39 -171 -50 -385 -51 -197 0 -240 7 -240 39 0 40 91 74 280 106 251 41 490 127 490 176 0 19 -4 18 -144 -16 -231 -57 -499 -80 -513 -43 -14 37 21 49 300 103 206 39 571 173 737 270 42 24 123 26 223 5z m-1310 -1005 c111 -31 240 -54 362 -65 134 -12 286 -36 339 -55 194 -66 348 -195 429 -360 59 -119 101 -275 92 -343 -7 -59 -59 -203 -84 -236 -21 -27 -142 -72 -173 -63 -12 3 -71 53 -132 111 -165 159 -213 198 -254 212 -20 7 -66 30 -101 52 -36 21 -99 52 -140 68 -193 74 -447 224 -529 313 -71 77 -54 94 54 51 73 -29 199 -50 249 -41 67 13 39 36 -121 102 -110 46 -168 80 -159 94 3 5 20 4 38 -1 41 -12 321 -39 403 -39 35 0 65 4 68 9 12 19 -27 33 -162 61 -146 29 -195 48 -212 79 -6 12 -17 17 -29 14 -21 -5 -61 28 -61 52 0 20 0 20 123 -15z m1350 -167 c-7 -2 -21 -2 -30 0 -10 3 -4 5 12 5 17 0 24 -2 18 -5z m-128 -23 c8 -13 -20 -24 -41 -16 -20 8 -9 26 16 26 10 0 22 -5 25 -10z m-1481 -312 c81 -47 173 -110 264 -181 34 -27 83 -55 109 -63 26 -8 90 -38 143 -68 52 -29 116 -60 141 -70 57 -20 155 -79 190 -112 183 -174 236 -550 107 -748 -31 -47 -51 -54 -198 -76 -96 -14 -128 -16 -136 -7 -6 7 -106 138 -221 292 -179 239 -228 298 -331 395 -122 115 -264 269 -309 335 -26 38 -27 78 -3 83 8 1 39 -20 68 -47 104 -99 342 -216 342 -169 0 7 -41 54 -92 105 -51 51 -89 95 -86 98 3 3 62 -22 130 -56 125 -62 158 -69 158 -32 -1 28 -17 43 -160 151 -141 105 -160 121 -199 164 -22 26 -22 48 2 48 6 0 43 -19 81 -42z m-189 -548 c70 -66 131 -120 135 -120 9 0 189 -219 300 -365 122 -161 240 -408 240 -502 0 -47 -39 -184 -68 -236 -32 -60 -125 -147 -156 -147 -29 0 -194 56 -214 72 -22 19 -46 79 -137 348 -124 368 -157 440 -306 676 -107 172 -139 230 -139 258 0 15 42 -22 153 -135 96 -98 169 -164 199 -179 88 -46 75 1 -33 114 -78 83 -90 120 -19 61 24 -20 74 -52 112 -71 122 -62 119 -44 -20 100 -111 114 -171 184 -191 224 -26 50 21 18 144 -98z m-156 -57 c17 -20 28 -39 26 -42 -6 -6 -54 38 -66 62 -17 31 8 19 40 -20z m-221 -175 c29 -32 178 -270 217 -348 18 -36 42 -96 53 -135 11 -38 46 -144 78 -235 50 -145 57 -174 57 -240 -1 -131 -66 -253 -150 -281 -45 -15 -157 -5 -189 16 -38 25 -53 76 -89 305 -19 118 -38 235 -44 260 -17 75 -90 278 -137 380 -49 109 -50 110 -30 110 23 0 118 -122 189 -243 36 -62 74 -123 83 -136 l18 -25 9 22 c22 48 -27 179 -133 358 -28 47 -49 91 -47 97 5 15 71 -70 178 -228 48 -72 98 -140 110 -150 l22 -20 -8 25 c-17 58 -80 200 -150 340 -73 145 -81 174 -37 128z m-410 -335 c-16 -15 -18 -15 -24 0 -3 9 -3 25 0 34 6 15 8 15 24 0 15 -16 15 -18 0 -34z"/>
<path d="M10162 6618 c-11 -18 -34 -67 -52 -108 -53 -121 -120 -235 -195 -328 -38 -47 -43 -73 -21 -91 11 -10 21 -9 43 3 110 57 263 355 263 513 0 51 -11 54 -38 11z"/>
<path d="M8810 4500 c-15 -15 -19 -28 -14 -48 18 -78 26 -102 43 -124 l19 -23 26 24 c32 30 42 92 24 146 -11 34 -18 40 -45 43 -22 2 -38 -3 -53 -18z"/>
<path d="M8944 3635 c-9 -22 4 -94 24 -135 24 -48 51 -50 91 -5 47 54 40 95 -23 134 -39 25 -84 27 -92 6z"/>
<path d="M8747 2750 c-33 -26 -41 -53 -26 -82 13 -26 59 -78 69 -78 11 0 40 68 46 110 11 67 -35 92 -89 50z"/>
<path d="M8348 2065 c-24 -52 37 -118 78 -84 19 16 11 55 -18 87 -28 29 -46 28 -60 -3z"/>
<path d="M7896 1559 c-31 -36 -24 -52 23 -52 40 0 63 20 59 52 -5 41 -48 41 -82 0z"/>
<path d="M8010 397 c0 -38 144 -187 180 -187 42 0 19 38 -70 119 -91 81 -110 93 -110 68z"/>
<path d="M11235 4998 c-25 -29 -68 -86 -96 -126 -47 -70 -59 -102 -40 -102 16 0 160 158 180 199 43 84 19 100 -44 29z"/>
<path d="M10411 5788 c-6 -18 -16 -75 -22 -128 -18 -177 -64 -290 -180 -449 -68 -92 -81 -121 -56 -121 16 0 118 69 161 109 74 68 138 213 155 351 22 170 -21 344 -58 238z"/>
<path d="M10297 5627 c-32 -25 -110 -218 -94 -234 13 -12 54 37 91 109 47 91 48 160 3 125z"/>
<path d="M10736 4852 c-3 -5 -8 -54 -12 -108 -12 -188 -77 -315 -255 -495 -95 -96 -94 -129 2 -82 113 57 238 219 296 385 31 88 42 238 21 278 -14 26 -42 38 -52 22z"/>
<path d="M10514 4530 c-60 -71 -84 -114 -71 -127 19 -19 117 95 144 168 19 51 -10 34 -73 -41z"/>
<path d="M10565 3439 c-104 -127 -224 -223 -370 -297 -44 -22 -91 -49 -105 -61 l-25 -20 59 -1 c32 0 98 9 146 21 108 25 170 65 252 163 77 91 100 141 96 205 l-3 51 -50 -61z"/>
<path d="M10345 3416 c-67 -32 -135 -83 -135 -101 0 -24 43 -39 69 -26 11 7 21 16 21 21 0 5 30 33 66 61 47 38 62 54 52 60 -18 12 -16 12 -73 -15z"/>
<path d="M10213 2060 c-33 -20 -73 -66 -73 -85 0 -7 6 -18 13 -24 23 -19 117 66 117 105 0 21 -27 23 -57 4z"/>
<path d="M10326 1986 c-14 -19 -60 -62 -101 -96 -78 -64 -88 -85 -56 -114 17 -16 21 -15 67 17 66 45 102 100 113 167 5 30 8 56 6 58 -1 1 -14 -13 -29 -32z"/>
<path d="M9880 1360 c0 -120 -12 -162 -60 -213 l-38 -41 -105 2 c-63 1 -108 -2 -112 -8 -17 -28 80 -80 155 -82 42 -1 112 53 143 111 53 96 69 258 31 308 -11 16 -13 5 -14 -77z"/>
<path d="M9717 1313 c-11 -11 -8 -91 4 -99 24 -15 54 37 50 89 -1 17 -40 25 -54 10z"/>
<path d="M9232 721 c-66 -11 -130 -67 -105 -92 18 -18 73 5 121 50 40 38 50 52 35 50 -5 -1 -27 -5 -51 -8z"/>
<path d="M9290 649 c-66 -58 -96 -71 -184 -80 -43 -4 -81 -11 -84 -14 -13 -12 36 -80 69 -98 68 -36 153 1 205 89 25 42 48 117 42 135 -2 4 -23 -10 -48 -32z"/>
<path d="M8568 581 c-28 -25 -30 -31 -19 -45 27 -32 111 -8 111 33 0 47 -46 53 -92 12z"/>
<path d="M8630 426 c-128 -45 -146 -60 -111 -95 26 -26 63 -26 116 -2 70 31 120 111 75 118 -8 1 -44 -8 -80 -21z"/>
<path d="M1801 11447 c-122 -62 -373 -359 -504 -597 -57 -104 -105 -232 -120 -316 -15 -88 -28 -117 -97 -219 -85 -126 -123 -218 -135 -330 -9 -79 -20 -102 -103 -218 -39 -53 -76 -114 -83 -135 -6 -20 -27 -60 -45 -88 -68 -102 -135 -274 -192 -489 l-37 -140 1 -225 c0 -183 4 -231 16 -255 42 -81 29 -214 -31 -326 -46 -86 -83 -170 -192 -438 l-79 -194 0 -423 0 -423 -50 -66 c-64 -85 -94 -144 -122 -242 -20 -68 -23 -100 -22 -243 0 -181 14 -271 64 -437 44 -143 76 -226 131 -338 42 -85 53 -120 70 -224 20 -122 44 -204 134 -461 42 -121 48 -148 56 -265 23 -326 114 -697 208 -842 51 -80 52 -83 60 -215 6 -105 10 -122 40 -179 87 -167 230 -334 355 -415 39 -26 100 -70 136 -99 147 -117 223 -153 767 -365 115 -44 163 -68 166 -81 3 -10 3 -64 0 -121 -6 -116 12 -240 46 -310 49 -101 90 -164 117 -180 52 -30 156 -40 281 -27 62 7 116 9 120 5 4 -3 1 -95 -5 -204 -20 -335 -17 -354 75 -453 83 -89 196 -128 365 -129 l87 0 6 -58 c26 -245 38 -290 101 -370 110 -140 247 -176 397 -104 96 47 118 44 186 -26 31 -32 84 -72 119 -91 l63 -33 173 4 172 3 32 -27 c75 -63 247 -39 318 44 56 67 75 132 109 368 23 155 68 332 100 385 68 117 196 141 447 85 187 -41 258 -51 373 -52 125 -1 198 18 241 64 38 40 54 69 54 98 0 45 -117 186 -257 312 -48 43 -95 91 -106 108 -11 17 -30 82 -42 144 -28 143 -64 215 -176 355 l-86 109 -6 163 c-6 184 -25 276 -79 387 -42 87 -131 177 -220 222 -84 42 -173 109 -261 195 -93 90 -128 164 -134 283 -9 149 15 196 154 298 40 30 87 73 104 97 143 193 178 503 94 833 -13 53 -37 117 -52 143 -15 25 -41 78 -58 117 -69 156 -234 375 -397 526 -572 531 -627 579 -899 784 -364 274 -524 421 -755 694 -73 85 -164 191 -203 235 -109 123 -170 214 -299 441 -65 115 -156 274 -202 354 -46 80 -92 167 -103 195 -10 27 -27 59 -37 70 -18 20 -36 54 -148 300 -64 142 -174 476 -207 635 -9 41 -30 174 -47 295 -52 378 -49 728 7 1011 34 169 78 309 204 648 60 160 111 303 115 317 8 35 -36 95 -100 137 -58 39 -110 42 -173 9z m-15 -477 c-3 -22 -24 -91 -45 -153 -55 -163 -86 -300 -128 -582 -33 -224 -37 -270 -37 -445 0 -147 5 -235 22 -355 100 -716 304 -1252 765 -2015 263 -434 395 -607 668 -876 243 -238 397 -369 844 -716 132 -103 285 -227 340 -276 55 -48 141 -120 190 -158 93 -73 316 -318 417 -459 129 -182 227 -420 272 -664 21 -108 20 -142 -3 -232 -50 -194 -120 -309 -190 -309 -42 0 -90 -21 -123 -54 -63 -64 -92 -184 -92 -386 -1 -135 0 -135 34 -203 72 -142 180 -245 420 -402 150 -98 183 -130 223 -215 30 -64 31 -68 34 -245 2 -99 6 -195 9 -214 4 -23 25 -54 68 -100 34 -36 77 -88 95 -114 68 -99 128 -261 146 -389 8 -59 34 -92 98 -125 29 -14 84 -58 123 -97 107 -106 140 -187 92 -220 -18 -13 -52 -16 -163 -16 -196 0 -288 19 -465 95 -132 58 -299 56 -348 -2 -65 -79 -126 -256 -181 -531 -22 -110 -50 -226 -62 -257 -25 -67 -76 -128 -131 -156 -47 -24 -60 -19 -122 54 l-46 54 40 213 c62 328 119 547 154 595 25 35 26 12 1 -85 -38 -146 -31 -220 16 -174 10 11 53 93 94 183 73 160 93 196 102 187 3 -3 -5 -36 -17 -75 -24 -77 -24 -136 0 -136 49 0 204 523 162 548 -5 4 -27 -23 -48 -60 -66 -113 -117 -127 -236 -65 -88 45 -113 84 -123 195 -11 120 21 233 96 344 37 53 36 87 -2 148 l-31 49 -102 -106 c-114 -118 -151 -139 -215 -119 -50 15 -120 76 -142 125 -23 51 -24 140 -4 221 9 33 49 129 90 213 70 142 75 155 63 180 -17 36 -57 41 -84 10 -11 -13 -40 -54 -64 -93 -55 -91 -78 -115 -108 -115 -58 0 -165 81 -220 167 -35 55 -62 140 -62 192 0 53 61 177 122 250 119 143 138 183 101 223 -21 24 -43 23 -144 -7 -124 -36 -131 -35 -184 32 -58 74 -122 200 -131 258 -14 96 38 251 114 335 22 25 63 58 92 74 56 31 40 30 231 10 61 -7 99 6 99 34 0 22 -27 39 -103 62 -151 47 -236 144 -267 307 -22 110 15 241 92 329 52 60 106 94 147 94 50 0 130 -49 181 -109 49 -58 70 -69 87 -45 36 49 -5 161 -89 245 -63 63 -114 89 -175 89 -43 0 -64 9 -171 74 -242 147 -454 318 -725 583 -257 252 -448 531 -540 788 -30 84 -35 121 -47 339 -10 179 -21 216 -51 180 -11 -13 -15 -60 -17 -191 -3 -149 -1 -189 18 -275 24 -112 21 -140 -15 -164 -21 -13 -32 -14 -82 -4 -83 18 -122 40 -189 113 -115 122 -279 356 -262 372 4 4 45 -8 92 -25 89 -34 156 -43 163 -24 8 23 -48 74 -94 85 -26 7 -84 40 -141 80 -53 38 -99 69 -103 69 -18 0 -289 461 -289 492 0 29 18 30 91 8 39 -12 74 -18 77 -15 11 10 -58 62 -127 97 -56 28 -70 42 -109 102 -57 88 -183 341 -211 424 -19 55 -20 112 -3 112 3 0 28 -18 56 -39 78 -60 176 -100 176 -71 0 5 -21 26 -47 47 -184 149 -248 249 -308 480 -45 171 -91 463 -74 463 4 0 42 -28 85 -62 94 -78 131 -101 137 -90 9 13 -29 89 -76 150 -100 130 -156 245 -184 377 -16 77 -13 175 13 440 16 164 19 177 41 248 16 53 43 65 43 19 0 -58 64 -212 81 -195 5 5 13 105 18 223 7 197 10 222 36 295 34 97 104 240 155 315 76 111 252 260 308 260 23 0 24 -3 18 -40z m-827 -1547 c12 -259 35 -500 61 -633 10 -52 24 -130 29 -173 6 -44 32 -167 57 -274 25 -107 43 -200 41 -206 -7 -20 -37 62 -68 183 -38 148 -48 180 -60 180 -47 0 102 -614 247 -1013 139 -382 407 -916 647 -1290 42 -65 79 -134 83 -152 6 -36 -2 -75 -16 -75 -18 0 -121 140 -243 330 -69 107 -142 220 -164 250 -37 53 -38 54 -41 27 -2 -19 17 -71 61 -160 78 -162 167 -306 308 -502 139 -193 193 -295 157 -295 -6 0 -61 50 -122 112 -77 77 -112 107 -114 95 -7 -33 103 -200 201 -306 38 -41 85 -98 104 -128 46 -68 37 -83 -52 -83 -89 0 -127 25 -230 148 -107 129 -247 316 -269 360 -16 30 -16 33 0 39 12 4 24 -3 40 -22 18 -23 32 -29 77 -33 31 -2 57 0 61 6 8 13 -79 87 -222 191 -127 92 -142 106 -213 209 -56 81 -169 293 -169 317 0 21 9 19 78 -16 61 -32 152 -50 152 -31 0 5 -43 44 -96 86 -53 41 -140 117 -193 168 -95 92 -97 95 -159 233 -81 179 -120 291 -107 304 7 7 38 -5 95 -39 85 -50 126 -67 137 -57 10 11 -36 72 -90 119 -64 55 -140 165 -198 284 -32 66 -45 112 -64 216 -12 73 -38 204 -56 290 -18 87 -29 161 -26 165 14 13 73 -26 155 -102 118 -108 125 -85 22 75 -140 217 -201 380 -201 535 0 147 51 396 103 498 63 125 235 404 244 395 2 -3 8 -104 13 -225z m321 -1628 c56 -154 113 -314 127 -355 13 -41 45 -113 69 -159 25 -46 63 -123 83 -171 60 -137 327 -604 426 -745 47 -67 85 -137 85 -158 0 -20 -33 -47 -47 -39 -7 4 -32 48 -56 97 -25 50 -100 187 -167 305 -228 405 -420 813 -545 1166 -74 208 -116 380 -86 349 5 -6 55 -136 111 -290z m-747 88 c8 -16 33 -102 56 -193 113 -453 245 -820 451 -1255 29 -60 72 -155 97 -210 56 -127 155 -276 438 -655 128 -172 222 -306 215 -308 -40 -14 -457 479 -612 723 -164 258 -308 524 -404 746 -41 95 -79 178 -85 184 -18 16 -2 -55 38 -175 140 -422 418 -900 793 -1365 174 -216 213 -275 201 -308 -8 -23 -30 0 -233 248 -161 196 -204 242 -214 233 -21 -22 101 -202 279 -409 73 -86 141 -172 150 -191 9 -19 25 -80 36 -135 23 -119 40 -177 115 -382 31 -84 56 -160 56 -167 0 -31 -40 -10 -125 64 -117 102 -287 281 -308 324 -19 40 -12 50 44 57 78 11 61 35 -45 62 -95 24 -276 164 -355 274 l-32 45 71 0 c40 0 86 6 107 15 34 14 35 16 19 34 -9 10 -49 31 -89 46 -39 15 -84 36 -98 46 -14 10 -38 21 -53 25 -61 15 -171 157 -304 390 -70 124 -69 132 15 89 84 -43 140 -54 149 -31 9 22 -10 42 -87 92 -85 54 -189 151 -228 213 -89 138 -240 583 -241 709 0 17 3 32 8 32 4 0 31 -18 60 -39 49 -37 118 -68 128 -59 2 3 -8 21 -24 40 -73 92 -104 149 -143 268 -36 109 -43 140 -47 237 -10 233 66 581 150 688 25 32 34 32 51 -2z m-189 -1668 c133 -356 282 -670 412 -869 249 -380 504 -686 839 -1006 190 -182 257 -239 383 -329 133 -95 186 -155 153 -175 -11 -7 -154 87 -286 188 -55 42 -129 98 -165 123 -108 78 -395 359 -525 513 -183 218 -336 419 -441 578 -52 78 -98 142 -102 142 -19 0 -30 -23 -22 -49 32 -113 283 -491 326 -491 8 0 24 -21 35 -47 39 -92 155 -231 387 -467 190 -192 323 -310 467 -416 129 -94 155 -119 155 -147 0 -30 -25 -30 -71 1 -19 13 -55 34 -80 45 -24 12 -84 53 -134 92 -212 167 -268 209 -281 209 -66 0 137 -211 361 -375 146 -107 140 -97 165 -299 6 -49 20 -106 31 -127 10 -21 15 -40 10 -43 -20 -13 -166 59 -232 113 l-24 20 38 38 c20 21 37 44 37 51 0 20 -46 32 -118 32 -118 1 -172 24 -291 128 l-45 39 61 32 c34 18 69 41 78 51 16 17 15 20 -14 35 -17 8 -62 19 -99 24 -71 9 -97 19 -172 70 -25 17 -53 31 -62 31 -44 0 -164 144 -212 254 -14 32 -26 60 -26 61 0 2 44 1 98 -2 167 -8 161 29 -17 98 -58 23 -133 55 -166 72 -139 70 -326 313 -397 517 -18 51 -48 178 -48 202 0 5 33 -19 73 -54 94 -84 116 -98 149 -98 20 0 28 5 28 18 0 24 -14 41 -75 87 -90 69 -126 109 -157 170 -17 33 -57 107 -89 163 -33 57 -66 127 -75 155 -9 29 -26 79 -38 112 -19 55 -21 80 -21 310 l0 250 34 65 c44 86 72 123 82 113 4 -4 42 -98 83 -208z m2086 -130 c127 -34 244 -114 296 -203 55 -94 162 -221 328 -387 194 -193 372 -345 593 -506 141 -102 193 -148 193 -170 0 -5 -17 -9 -37 -9 -71 0 -226 99 -486 308 -138 112 -191 152 -201 152 -13 0 -5 -57 13 -86 46 -75 197 -204 401 -344 179 -122 213 -155 180 -175 -17 -10 -138 60 -275 160 -283 205 -385 270 -385 242 0 -51 427 -421 572 -496 52 -27 53 -29 56 -75 l3 -48 -88 48 c-48 26 -197 108 -330 181 -134 73 -245 133 -248 133 -3 0 -5 -8 -5 -18 0 -39 112 -122 415 -306 179 -109 202 -127 221 -173 19 -45 18 -102 -2 -110 -54 -20 -300 106 -574 295 -117 81 -165 119 -306 247 -61 55 -143 128 -182 163 -117 103 -267 348 -331 539 -44 130 -62 222 -68 353 -8 171 18 265 81 290 33 13 105 11 166 -5z m-195 -1013 c54 -29 68 -42 157 -147 106 -125 244 -259 363 -350 200 -156 587 -402 765 -487 47 -23 93 -48 103 -56 22 -19 23 -62 1 -62 -29 0 -458 218 -581 295 -122 76 -174 95 -181 64 -1 -9 8 -30 22 -46 35 -41 317 -227 476 -314 136 -74 186 -111 175 -129 -3 -6 -18 -10 -31 -10 -37 0 -281 93 -413 157 -154 75 -227 77 -166 5 40 -48 161 -118 338 -197 89 -39 176 -79 194 -88 37 -20 63 -53 63 -82 0 -37 -15 -47 -67 -47 -54 1 -479 97 -577 132 -82 28 -206 96 -361 198 -71 47 -151 97 -176 111 -26 15 -99 76 -162 138 -86 83 -117 120 -122 145 -4 18 -15 44 -24 58 -42 61 -124 279 -146 386 -37 178 -1 316 88 344 18 5 75 8 127 6 74 -2 104 -8 135 -24z m-1633 -729 c14 -16 54 -71 88 -123 237 -357 522 -647 841 -855 57 -37 160 -105 229 -150 144 -95 228 -139 296 -156 60 -15 111 -40 187 -91 64 -43 77 -74 27 -63 -182 40 -801 386 -1010 565 -94 81 -124 87 -89 18 55 -108 270 -303 506 -459 60 -40 203 -118 318 -175 116 -56 219 -110 230 -119 19 -16 17 -16 -32 -11 -29 3 -89 16 -133 31 -87 27 -134 32 -128 14 2 -6 51 -44 108 -83 57 -39 105 -77 108 -84 2 -7 -9 -15 -27 -18 -17 -4 -31 -10 -31 -15 0 -17 153 -109 181 -109 21 0 59 -42 59 -65 0 -42 -69 -114 -110 -114 -8 -1 -53 15 -100 35 -47 20 -158 62 -248 94 -196 71 -269 109 -322 166 -45 49 -51 79 -17 90 46 14 75 62 47 79 -6 3 -54 11 -107 16 -158 16 -261 59 -357 148 -93 87 -286 328 -286 357 0 21 16 17 111 -27 72 -33 92 -38 109 -29 11 6 20 16 20 22 0 7 -72 84 -161 172 -150 151 -163 167 -203 251 -80 168 -132 342 -146 482 -9 96 -4 233 10 233 3 0 18 -12 32 -27z m2033 -672 c312 -135 480 -185 825 -243 74 -13 75 -14 75 -43 l0 -30 -80 -3 c-101 -4 -281 20 -433 58 -135 34 -142 35 -142 16 0 -49 240 -135 485 -175 183 -30 275 -67 275 -112 0 -36 -42 -42 -250 -35 -210 6 -317 22 -371 55 -36 22 -69 27 -69 11 0 -29 138 -109 261 -151 56 -18 97 -22 314 -29 138 -5 251 -9 253 -9 1 -1 2 -9 2 -19 0 -20 -21 -42 -55 -60 -42 -21 -228 -33 -546 -33 -355 0 -378 3 -540 59 -304 105 -494 280 -545 499 -22 97 1 216 51 263 43 40 150 71 230 67 61 -4 94 -15 260 -86z m1085 -912 c0 -17 -57 -69 -75 -69 -9 0 -43 -16 -74 -35 -50 -31 -68 -36 -158 -45 -96 -9 -183 -33 -183 -50 0 -27 321 -18 447 11 29 7 56 9 60 5 13 -13 -37 -43 -159 -96 -172 -76 -180 -96 -39 -93 68 1 103 8 170 32 47 17 88 31 93 31 16 0 8 -34 -16 -65 -65 -85 -253 -197 -596 -355 -224 -103 -292 -149 -437 -296 -67 -68 -128 -124 -135 -124 -34 0 -120 33 -148 57 -62 51 -118 211 -107 303 9 78 54 216 98 300 77 149 154 222 324 308 99 49 186 71 383 92 192 22 337 47 452 80 76 22 100 24 100 9z m-1450 -185 c0 -2 -9 -4 -21 -4 -11 0 -18 4 -14 10 5 8 35 3 35 -6z m155 -24 c8 -13 -20 -24 -41 -16 -20 8 -9 26 16 26 10 0 22 -5 25 -10z m1520 -280 c3 -5 1 -18 -4 -29 -14 -26 -158 -140 -235 -187 -107 -65 -161 -129 -135 -160 14 -18 31 -10 200 86 77 45 143 80 145 77 4 -4 -130 -135 -210 -204 -52 -45 -53 -63 -4 -63 57 0 272 130 325 196 23 28 34 35 50 30 68 -22 14 -99 -252 -361 -133 -131 -226 -233 -250 -270 -46 -74 -146 -211 -243 -333 -81 -102 -137 -142 -196 -142 -66 0 -173 30 -214 60 -103 74 -133 264 -81 512 16 78 66 175 113 222 58 58 179 137 244 158 87 29 326 166 541 311 75 50 176 107 191 107 5 0 12 -4 15 -10z m245 -467 c-1 -16 -61 -87 -184 -219 -159 -170 -163 -185 -32 -117 42 23 102 67 147 110 134 128 105 78 -54 -93 -115 -124 -130 -171 -39 -124 29 15 102 80 195 174 190 194 192 177 14 -121 -144 -241 -207 -382 -313 -696 -53 -158 -105 -298 -115 -311 -19 -25 -181 -86 -226 -86 -13 0 -47 23 -82 56 -129 119 -170 288 -111 458 29 85 149 303 213 388 185 246 589 646 587 581z m165 -510 c-76 -157 -135 -293 -135 -314 0 -25 38 23 128 161 102 156 184 260 190 241 2 -6 -23 -55 -56 -109 -86 -138 -152 -300 -152 -370 0 -24 1 -24 19 -8 11 10 50 66 87 125 106 169 195 283 209 269 3 -2 -20 -69 -51 -149 -112 -292 -132 -364 -163 -594 -25 -178 -38 -242 -58 -273 -41 -66 -149 -82 -239 -37 -96 50 -102 58 -120 177 -15 101 -14 109 5 190 25 105 117 365 177 501 39 88 164 293 213 350 36 43 18 -13 -54 -160z m485 -157 c-17 -22 -32 -9 -19 16 8 14 14 17 22 9 7 -7 6 -15 -3 -25z"/>
<path d="M2600 6613 c0 -73 29 -185 70 -268 91 -185 238 -323 248 -234 2 18 -11 43 -49 90 -59 74 -104 149 -182 304 -30 61 -62 119 -71 130 -15 19 -15 18 -16 -22z"/>
<path d="M3899 4514 c-7 -9 -15 -44 -17 -79 -4 -58 -2 -65 26 -96 25 -28 32 -31 45 -20 24 19 49 93 45 132 -2 25 -11 39 -37 56 -40 27 -45 28 -62 7z"/>
<path d="M3751 3634 c-60 -43 -60 -139 1 -170 39 -20 53 -14 77 35 30 58 37 114 16 134 -21 22 -64 22 -94 1z"/>
<path d="M3970 2755 c-15 -19 -7 -92 15 -135 19 -37 25 -37 56 -4 46 49 22 154 -36 154 -13 0 -28 -7 -35 -15z"/>
<path d="M4387 2063 c-24 -28 -31 -67 -13 -82 39 -33 96 23 76 74 -11 29 -40 33 -63 8z"/>
<path d="M4827 1583 c-13 -12 -7 -50 9 -63 18 -16 71 -17 85 -3 15 15 -37 73 -65 73 -13 0 -26 -3 -29 -7z"/>
<path d="M4649 303 c-69 -71 -89 -98 -77 -101 45 -9 198 123 198 172 0 15 -6 26 -13 26 -7 0 -56 -44 -108 -97z"/>
<path d="M1500 5021 c0 -29 73 -131 136 -191 101 -95 73 -16 -46 135 -59 74 -90 93 -90 56z"/>
<path d="M2347 5796 c-14 -35 -18 -189 -8 -282 12 -116 34 -175 94 -253 41 -53 192 -191 208 -191 15 0 10 39 -8 68 -9 15 -42 63 -74 107 -99 141 -130 223 -149 399 -6 55 -16 116 -21 134 -11 33 -33 43 -42 18z"/>
<path d="M2470 5626 c-8 -11 -8 -25 -1 -54 11 -39 80 -154 100 -166 32 -20 17 70 -29 167 -26 54 -52 74 -70 53z"/>
<path d="M2015 4840 c-26 -29 -31 -131 -10 -224 27 -124 92 -241 191 -345 60 -64 98 -95 135 -111 45 -19 54 -20 66 -8 12 13 5 24 -50 79 -70 71 -206 249 -238 311 -16 31 -22 71 -28 168 -4 70 -11 132 -15 139 -11 17 -31 13 -51 -9z"/>
<path d="M2225 4543 c31 -70 69 -121 101 -135 30 -14 38 -6 30 25 -6 25 -131 167 -147 167 -5 0 3 -26 16 -57z"/>
<path d="M2180 3448 c0 -29 9 -71 19 -93 26 -59 138 -193 184 -222 45 -28 248 -83 308 -83 74 0 47 24 -130 116 -63 32 -128 73 -145 90 -17 17 -44 39 -60 50 -16 10 -62 58 -103 107 l-73 88 0 -53z"/>
<path d="M2380 3430 c0 -5 8 -18 18 -27 11 -10 40 -38 65 -61 26 -24 47 -48 47 -53 0 -14 44 -11 64 4 26 19 9 46 -58 91 -77 51 -136 71 -136 46z"/>
<path d="M2537 2068 c-9 -25 19 -69 67 -106 59 -46 66 21 7 79 -39 40 -65 49 -74 27z"/>
<path d="M2450 1969 c0 -108 140 -244 190 -184 18 22 3 52 -45 85 -24 16 -66 55 -94 87 l-51 57 0 -45z"/>
<path d="M2890 1415 c-15 -39 1 -208 25 -258 22 -47 81 -114 115 -132 25 -13 34 -13 82 1 29 9 71 25 92 36 38 19 39 21 21 34 -13 10 -49 14 -117 14 -92 0 -101 2 -124 25 -39 39 -56 92 -62 190 -5 108 -15 134 -32 90z"/>
<path d="M3037 1314 c-14 -14 -6 -69 12 -91 11 -13 21 -23 24 -23 10 0 15 47 9 80 -7 33 -29 49 -45 34z"/>
<path d="M3531 721 c-14 -9 54 -76 93 -91 64 -24 76 16 18 55 -45 30 -95 46 -111 36z"/>
<path d="M3460 658 c0 -31 61 -158 88 -181 70 -63 212 -29 212 50 0 24 -9 28 -85 38 -56 8 -98 26 -135 60 -14 12 -37 30 -52 40 -28 17 -28 17 -28 -7z"/>
<path d="M4136 604 c-26 -25 -19 -50 18 -68 38 -18 74 -20 96 -6 12 7 11 13 -10 35 -22 24 -70 55 -84 55 -2 0 -12 -7 -20 -16z"/>
<path d="M4076 428 c16 -53 37 -81 77 -99 49 -22 67 -23 101 -8 27 13 38 32 30 53 -4 11 -182 77 -207 76 -5 0 -5 -10 -1 -22z"/>
</g>
</svg>