<svg xmlns:dc="http://purl.org/dc/elements/1.1/" xmlns:cc="http://web.resource.org/cc/" xmlns:rdf="http://www.w3.org/1999/02/22-rdf-syntax-ns#" xmlns:svg="http://www.w3.org/2000/svg" xmlns="http://www.w3.org/2000/svg" xmlns:sodipodi="http://sodipodi.sourceforge.net/DTD/sodipodi-0.dtd" xmlns:inkscape="http://www.inkscape.org/namespaces/inkscape" id="svg2151" sodipodi:version="0.32" inkscape:version="0.44" width="210mm" height="297mm" sodipodi:docbase="/home/peterm/afbeeldingen/svg/ocal" sodipodi:docname="angel wings 3.svg">
  <metadata id="metadata2156">
    <rdf:RDF>
      <cc:Work rdf:about="">
        <dc:format>image/svg+xml</dc:format>
        <dc:type rdf:resource="http://purl.org/dc/dcmitype/StillImage"/>
      </cc:Work>
    </rdf:RDF>
  </metadata>
  <defs id="defs2154"/>
  <sodipodi:namedview inkscape:window-height="579" inkscape:window-width="972" inkscape:pageshadow="2" inkscape:pageopacity="0.0" guidetolerance="10.0" gridtolerance="10.0" objecttolerance="10.0" borderopacity="1.0" bordercolor="#666666" pagecolor="#ffffff" id="base" inkscape:zoom="0.35919193" inkscape:cx="372.04724" inkscape:cy="526.18109" inkscape:window-x="85" inkscape:window-y="12" inkscape:current-layer="svg2151"/>
  <path style="fill:black" d="M 295.45663,477.32074 C 294.50807,476.17779 292.50705,475.99836 285.90522,476.46426 C 278.70624,476.9723 276.93175,476.76124 273.04627,474.93485 C 270.56714,473.76953 268.17267,472.20851 267.72523,471.46592 C 266.23485,468.99247 263.37989,468.74216 259.46113,470.74137 C 254.00313,473.52583 246.37332,472.54981 241.73032,468.4732 C 237.26562,464.55315 236.21899,462.42068 235.50593,455.79129 L 234.91169,450.26659 L 229.41169,450.22315 C 220.82975,450.15537 214.79209,448.04018 211.28887,443.87414 C 208.00699,439.97132 208.11085,441.355 209.6671,422.26659 C 209.87057,419.77096 209.57545,419.31651 207.91169,419.56353 C 196.8708,421.20278 188.8893,420.1784 187.65882,416.96418 C 187.30139,416.03051 186.25037,414.59159 185.32322,413.76659 C 183.04291,411.73751 181.39411,404.21062 182.09615,399.03479 C 182.5201,395.90922 182.30961,394.71199 181.29092,394.45485 C 180.53234,394.26337 176.31169,392.96423 171.91169,391.56788 C 167.51169,390.17153 161.21169,388.23214 157.91169,387.25812 C 149.32045,384.72235 140.41772,380.89043 136.73002,378.14111 C 134.98011,376.83648 132.50511,375.35934 131.23002,374.85859 C 126.62579,373.05042 119.31408,366.99697 115.40353,361.75565 C 110.79829,355.58323 111.19217,356.58654 111.00364,350.54804 C 110.89766,347.1534 110.2594,345.27336 108.72882,343.84742 C 104.79084,340.17862 100.63397,328.80174 98.541249,315.96515 C 97.976229,312.49936 97.753239,309.04011 98.045719,308.27793 C 98.338189,307.51574 96.453559,302.47639 93.857639,297.07936 C 90.903229,290.93704 88.957249,285.39635 88.655139,282.26659 C 88.380609,279.42255 87.390109,276.40421 86.358029,275.26659 C 83.200149,271.78583 77.405569,258.37178 76.395609,252.20432 C 74.326469,239.56876 76.046019,231.96635 82.456079,225.40999 L 85.480369,222.31667 L 85.276609,206.29163 L 85.072849,190.26659 L 91.386539,177.76659 C 94.859069,170.89159 98.283869,164.92153 98.997209,164.49978 C 101.00009,163.31562 101.92373,155.08848 100.2766,153.10381 C 99.525899,152.19928 99.072059,151.41586 99.268059,151.3629 C 99.464059,151.30993 99.307119,148.30366 98.919309,144.6823 C 98.358669,139.44714 98.644959,136.57854 100.31652,130.68231 C 102.70563,122.25503 107.10402,113.07427 110.26826,109.91002 C 111.44715,108.73114 112.41169,107.18529 112.41169,106.4748 C 112.41169,105.76431 114.43669,103.19562 116.91169,100.76659 C 120.01842,97.717556 121.41169,95.523606 121.41169,93.680506 C 121.41169,89.534386 123.95218,84.427066 128.37252,79.686676 C 130.59406,77.304296 132.41169,74.556766 132.41169,73.581066 C 132.41169,67.115486 140.49555,54.853798 151.36297,44.835578 C 159.53508,37.302038 164.69676,34.529648 168.7017,35.522778 C 171.89112,36.313668 176.41169,39.675738 176.41169,41.256908 C 176.41169,42.001678 174.68163,46.133538 172.56711,50.438808 C 162.06576,71.820156 159.42728,80.038856 158.69587,93.646846 C 158.36859,99.735836 158.62392,106.97046 159.3135,111.14685 C 159.96005,115.06271 160.97132,121.19159 161.56076,124.76659 C 162.15019,128.34159 163.87319,134.19159 165.38964,137.76659 C 166.9061,141.34159 168.73499,145.84159 169.45385,147.76659 C 170.17272,149.69159 171.52355,152.39159 172.4557,153.76659 C 173.38785,155.14159 175.16783,158.29159 176.41121,160.76659 C 177.6546,163.24159 179.28836,165.62645 180.0418,166.06628 C 180.79524,166.50611 181.41169,167.34656 181.41169,167.93395 C 181.41169,168.85662 185.84852,175.23758 194.16516,186.27571 C 195.40456,187.92069 198.10456,191.81977 200.16516,194.94031 C 202.22575,198.06086 206.61169,202.94334 209.91169,205.79027 C 213.21169,208.63721 219.17507,214.14235 223.16364,218.02393 C 232.59837,227.20557 243.17221,234.55709 266.51649,248.16524 C 270.49794,250.48615 277.76625,255.64082 289.91169,264.75704 C 294.31169,268.05962 299.93669,272.09943 302.41169,273.73438 C 308.12877,277.51101 319.81835,290.37686 321.06323,294.26275 C 321.41495,295.36064 322.24776,296.71064 322.91392,297.26275 C 325.05451,299.03686 327.54717,306.99458 328.12637,313.9033 C 329.11587,325.70602 324.3774,335.68223 315.88607,339.67363 C 313.45647,340.81568 310.72328,342.88761 309.81231,344.27792 C 307.56343,347.71014 308.40588,354.71568 311.53148,358.57403 C 314.09335,361.73647 323.38702,367.98961 327.43166,369.27228 C 336.94536,372.28935 342.772,381.19068 342.62827,392.48811 L 342.54446,399.07538 L 347.33367,403.69139 C 352.85825,409.01618 354.88873,412.54267 355.88617,418.54518 C 356.50774,422.28576 357.24564,423.2499 361.75442,426.21266 C 368.17124,430.42921 375.41169,437.23611 375.41169,439.05215 C 375.41169,439.80335 374.39919,441.36407 373.16169,442.52042 C 369.07059,446.34325 357.87959,446.41142 339.84912,442.72336 C 332.17305,441.15326 325.4187,442.10399 322.04652,445.22922 C 319.48166,447.60625 317.20987,454.54939 315.45036,465.38874 C 314.41589,471.76155 313.20574,474.06499 309.50935,476.69705 C 305.99501,479.19948 297.33483,479.58384 295.45663,477.32074 z M 304.44442,474.24966 C 308.30802,472.25172 310.25358,468.25842 312.435,457.84888 C 314.51751,447.91139 319.33488,438.28865 322.6756,437.39324 C 325.98148,436.50716 332.98775,436.64109 335.61464,437.64058 C 344.08511,440.86344 349.48688,442.0165 357.13089,442.23346 C 367.46342,442.52672 369.41169,442.1245 369.41169,439.6981 C 369.41169,437.039 362.89176,431.11535 357.84261,429.18706 C 353.77759,427.63461 353.45443,427.23047 352.81322,422.8973 C 351.98299,417.2867 346.83838,408.90254 342.2645,405.70607 C 337.6229,402.46227 337.58964,402.37459 337.97204,394.38871 C 338.43879,384.64118 335.81861,380.02938 327.66225,376.24237 C 317.21223,371.39042 309.95872,366.47433 306.41169,361.83974 C 303.13005,357.5519 302.91907,356.82462 303.03004,350.18234 C 303.19722,340.17438 306.70526,334.76659 313.03024,334.76659 C 316.94566,334.76659 319.45576,331.93749 322.31088,324.30649 C 324.1411,319.41479 324.18486,318.55458 322.88657,312.98933 C 320.55886,303.01132 314.17363,291.77471 307.10908,285.22439 C 303.70052,282.06394 299.11169,277.80029 296.91169,275.74962 C 294.71169,273.69896 291.33669,271.22333 289.41169,270.24823 C 287.48669,269.27313 283.43669,266.60263 280.41169,264.31379 C 277.38669,262.02495 269.06169,256.64204 261.91169,252.35177 C 232.59429,234.76023 212.30153,219.30553 201.91169,206.6566 C 168.03873,165.41852 155.64164,140.00956 151.88274,104.11765 C 151.47244,100.19985 151.77934,95.119956 152.72855,90.117646 C 153.54793,85.799566 154.77767,79.037706 155.46131,75.091296 C 156.14495,71.144886 158.17762,64.844886 159.97834,61.091296 C 161.77907,57.337708 162.8772,53.878058 162.41864,53.403188 C 161.0993,52.036928 153.00698,56.608938 147.99023,61.554976 C 145.47394,64.035806 141.96693,69.035806 140.19689,72.666076 C 137.31651,78.573626 136.99068,80.132716 137.09331,87.516586 C 137.15638,92.054086 136.81537,95.766586 136.33552,95.766586 C 135.24119,95.766586 132.41169,90.394086 132.41169,88.316246 C 132.41169,85.334006 130.47996,86.800496 129.51329,90.516586 C 128.3943,94.818286 127.02136,107.70997 127.16979,112.52161 C 127.32423,117.52759 131.05048,124.35005 136.66169,129.90043 C 141.88504,135.06717 141.61443,138.04293 136.29655,133.91568 C 134.98487,132.89768 132.83084,131.49527 131.5098,130.79921 L 129.10791,129.53365 L 129.77444,134.39652 C 130.14104,137.0711 131.55284,142.86101 132.91178,147.26299 C 135.62846,156.06302 139.9266,161.68044 146.66987,165.24399 C 148.72787,166.33157 150.41169,167.57764 150.41169,168.01305 C 150.41169,169.22225 145.24183,167.70555 142.25732,165.62076 C 138.92476,163.29285 138.41169,163.30091 138.41169,165.68112 C 138.41169,168.96888 150.6454,187.76659 152.7851,187.76659 C 154.67464,187.76659 161.83143,191.68019 161.16344,192.34818 C 160.96904,192.54258 159.14575,192.19086 157.11169,191.56659 C 152.794,190.24145 151.57222,190.94229 153.52188,193.62577 C 154.28627,194.67787 157.35679,198.96496 160.34526,203.15263 C 163.33372,207.34031 166.13059,210.76659 166.56053,210.76659 C 166.99047,210.76659 169.47096,212.11659 172.07274,213.76659 C 174.67452,215.41659 177.78505,216.76659 178.98503,216.76659 C 181.31832,216.76659 184.14192,219.36969 183.02268,220.48894 C 182.44096,221.07065 178.72289,220.25503 172.16169,218.10641 C 169.00049,217.0712 170.33773,219.15745 178.01775,227.24256 C 184.20611,233.75733 186.42347,235.42912 190.12119,236.36801 C 197.88096,238.33829 199.85766,236.61114 197.31579,230.08169 C 195.93729,226.54063 195.95593,213.82235 197.34165,212.43663 C 199.14638,210.6319 199.74282,212.54251 200.02097,221.01925 C 200.259,228.27353 200.71481,230.04925 203.80649,235.76659 C 209.95222,247.13169 221.24107,258.56279 236.91169,269.28894 C 239.66169,271.17124 243.71169,273.97944 245.91169,275.52937 C 252.55172,280.20737 269.58103,288.91559 271.01384,288.36576 C 275.38969,286.68659 285.41169,293.98536 285.41169,298.85136 C 285.41169,302.47438 283.56319,302.62121 280.39589,299.24977 C 279.09546,297.86552 276.35973,296.23209 274.3165,295.61992 C 270.92562,294.60399 270.23029,294.75813 266.34596,297.38674 C 254.88014,305.14593 259.20895,321.12914 273.43392,323.55753 C 275.81026,323.9632 277.92716,324.81301 278.13816,325.44599 C 278.74252,327.25909 275.2382,327.86059 269.89085,326.8616 C 265.82563,326.10213 264.34911,326.26803 261.29182,327.82774 C 256.71515,330.16259 253.73282,333.8603 252.38283,338.87376 C 251.52073,342.07534 251.67089,343.35434 253.27891,346.50632 C 255.42856,350.71999 260.08313,355.773 261.79805,355.75472 C 262.41055,355.74819 265.2352,355.12421 268.07506,354.36809 C 271.79174,353.37851 273.54288,353.29778 274.32506,354.07996 C 276.24542,356.00032 275.50903,357.58568 270.91169,361.42858 C 268.43669,363.49742 266.41169,365.62189 266.41169,366.14961 C 266.41169,366.67734 265.69239,367.90393 264.81324,368.87538 C 262.21568,371.74565 263.81827,378.03837 268.10544,381.80256 C 272.16879,385.37023 275.97041,387.04598 278.29377,386.29356 C 279.18363,386.00538 280.99865,384.1699 282.32717,382.21472 C 285.44412,377.62746 287.79998,376.3246 289.42887,378.28729 C 290.41159,379.4714 290.33078,380.21424 289.02321,382.01627 C 279.88975,394.60363 278.9008,401.65522 285.68853,405.79387 C 290.72103,408.86231 293.56919,408.32959 299.20047,403.26659 C 301.95326,400.79159 304.42518,398.76659 304.69361,398.76659 C 304.96204,398.76659 305.93429,399.91523 306.85415,401.31912 C 308.4759,403.79422 308.43539,403.97557 305.51849,407.29774 C 302.13801,411.14788 300.86453,416.03643 301.85988,421.34211 C 302.41693,424.31146 303.24109,425.24018 306.72117,426.82015 C 313.59803,429.94228 316.4623,429.16053 320.06267,423.17884 C 321.11671,421.42765 321.27154,421.40986 321.90088,422.96765 C 322.9281,425.51027 315.45415,443.76659 313.38601,443.76659 C 311.95829,443.76659 312.20825,440.68026 313.89842,437.43973 C 314.80916,435.6936 314.94463,434.75561 314.25279,434.98622 C 313.63677,435.19156 311.50801,438.48389 309.52222,442.30251 C 305.57988,449.88351 304.42856,451.18346 302.95859,449.71349 C 302.33218,449.08708 302.59837,447.09893 303.71037,444.0986 C 304.65724,441.54381 305.25373,439.27529 305.03589,439.05746 C 303.76121,437.78277 300.16383,446.99507 297.60539,458.08578 L 294.64821,470.90496 L 297.26973,473.33578 C 300.35397,476.19565 300.61661,476.2291 304.44442,474.24966 z M 299.91169,468.1712 C 305.45159,463.34815 307.41169,462.3052 307.41169,464.18051 C 307.41169,465.99954 301.82256,470.27953 298.41169,471.07245 C 296.22786,471.58011 296.41757,471.2132 299.91169,468.1712 z M 309.85784,419.67946 C 308.60057,417.64515 311.09275,416.42979 313.32106,417.99056 C 314.46391,418.79104 315.10183,419.74312 314.73866,420.10628 C 313.6974,421.14755 310.59763,420.87647 309.85784,419.67946 z M 287.41169,401.38903 C 287.41169,399.42129 289.75465,397.74248 291.2291,398.65374 C 291.91678,399.07875 292.19104,400.17801 291.83857,401.09654 C 291.06869,403.10283 287.41169,403.34445 287.41169,401.38903 z M 268.37979,376.18267 C 267.2161,373.12194 267.83715,371.76659 270.40332,371.76659 C 272.72571,371.76659 273.99872,375.35434 272.37186,377.31458 C 270.61935,379.42623 269.49139,379.1064 268.37979,376.18267 z M 257.16169,344.68466 C 253.68092,342.66094 255.72621,337.76659 260.05267,337.76659 C 263.09568,337.76659 263.77805,339.23878 262.2182,342.43869 C 260.68796,345.57788 259.55985,346.07896 257.16169,344.68466 z M 264.99677,310.8606 C 263.85079,309.59431 263.52398,308.16738 263.97153,306.38418 C 264.6959,303.49807 266.12021,303.10175 268.77956,305.04631 C 270.18722,306.07562 270.33453,306.83934 269.53237,308.94918 C 268.16452,312.5469 266.9761,313.04773 264.99677,310.8606 z M 209.62387,239.38095 C 207.40047,236.96885 204.9283,233.70635 204.13016,232.13095 C 202.36136,228.63965 201.02013,221.75577 202.11638,221.79518 C 202.5538,221.81091 204.93669,225.23225 207.41169,229.39816 C 209.88669,233.56407 213.14919,237.85685 214.66169,238.93766 C 216.17419,240.01848 217.41169,241.54714 217.41169,242.33468 C 217.41169,245.14194 213.60242,243.69717 209.62387,239.38095 z M 286.35978,469.79437 C 288.76826,468.50539 289.35145,466.82844 290.89044,456.76659 C 291.83246,450.60767 293.39153,445.7878 296.55111,439.26659 C 298.94943,434.31659 301.07659,429.88438 301.27814,429.41723 C 302.48311,426.62439 295.92617,432.84991 291.93028,438.29262 C 289.31612,441.8533 286.80153,444.76659 286.34231,444.76659 C 284.44848,444.76659 288.57635,435.20003 292.45492,430.60027 C 294.75054,427.87781 296.46743,425.49023 296.27023,425.29454 C 295.64364,424.67275 292.02661,428.116 288.42106,432.76659 C 283.74515,438.79779 280.41169,442.41866 280.41169,441.46653 C 280.41169,440.02424 284.61533,432.31389 288.69861,426.26659 C 292.28573,420.95411 291.23625,420.12594 287.43139,425.26659 C 286.61722,426.36659 284.51312,428.85916 282.7556,430.80564 C 280.99809,432.75212 277.28291,439.57499 274.49966,445.96758 C 269.81111,456.73624 269.50282,457.93106 270.30497,462.22472 C 270.78114,464.77356 271.33745,466.9874 271.54121,467.14437 C 276.31614,470.82283 282.40389,471.9115 286.35978,469.79437 z M 275.06668,464.93785 C 272.81655,462.45148 272.8744,460.41881 275.16169,461.59978 C 276.12419,462.09674 278.57872,462.80412 280.61619,463.17174 C 283.30794,463.65741 284.16719,464.24017 283.7592,465.30337 C 282.95216,467.40649 277.0772,467.15945 275.06668,464.93785 z M 276.42005,457.79292 C 275.24534,457.05024 275.18793,456.59035 276.14984,455.62844 C 277.11176,454.66652 277.90675,454.69358 279.89148,455.75578 C 281.2776,456.4976 282.41169,457.47851 282.41169,457.93557 C 282.41169,459.06106 278.26993,458.96245 276.42005,457.79292 z M 253.01247,465.84927 C 254.60704,465.34474 257.03669,464.68737 258.41169,464.38845 C 260.04091,464.03427 261.37628,462.6993 262.24552,460.55578 C 262.97913,458.74672 263.96788,456.36659 264.44274,455.26659 C 264.9176,454.16659 266.67534,449.89159 268.34883,445.76659 C 271.40989,438.22133 276.18167,430.60169 284.30292,420.29087 C 286.7181,417.22454 288.39523,414.4168 288.02988,414.05144 C 287.66453,413.68609 285.23847,415.44089 282.63865,417.95099 C 276.73518,423.65072 268.41169,428.63864 268.41169,426.47662 C 268.41169,425.66262 269.42419,424.31131 270.66169,423.47372 C 271.89919,422.63613 274.93669,420.05064 277.41169,417.72818 C 281.77537,413.63345 280.47685,413.99418 275.41169,418.28378 C 272.50454,420.74579 264.63885,424.32709 263.85663,423.54486 C 263.56256,423.2508 266.15465,420.75466 269.61683,417.9979 C 281.71827,408.3621 282.62744,404.93817 270.71465,413.86353 C 260.86973,421.23958 248.07976,433.1197 246.42954,436.42104 C 245.64723,437.98609 244.05098,440.39159 242.88233,441.76659 C 241.71367,443.14159 240.16271,446.16379 239.43575,448.4826 C 237.64302,454.20091 239.91142,460.37971 245.17963,464.12809 C 249.39994,467.13089 249.14141,467.07408 253.01247,465.84927 z M 248.16167,460.68648 C 246.36085,459.6376 243.41169,454.71954 243.41169,452.76536 C 243.41169,452.16006 244.99712,452.87407 246.93486,454.35206 C 249.39343,456.2273 251.65973,457.03932 254.43486,457.03932 C 258.48684,457.03932 259.47885,458.29943 257.21169,460.56659 C 255.75767,462.02061 250.57022,462.08933 248.16167,460.68648 z M 248.27247,452.79986 C 246.3451,451.1942 246.22433,450.82702 247.61464,450.79986 C 249.84799,450.75623 254.41169,452.85594 254.41169,453.92711 C 254.41169,455.47578 250.65699,454.78636 248.27247,452.79986 z M 240.07369,435.51659 C 244.48292,430.97909 248.91778,425.98592 249.92894,424.42067 C 250.9401,422.85541 254.72488,419.5925 258.33955,417.16977 C 267.11952,411.285 275.84165,403.27129 274.98148,401.87952 C 274.03728,400.35177 271.73594,400.47922 271.11646,402.09356 C 270.4935,403.71697 258.07603,409.76659 255.36679,409.76659 C 252.47673,409.76659 252.98612,408.45549 256.66169,406.43368 C 259.54051,404.85014 268.42282,397.72741 265.91169,399.0161 C 265.36169,399.29836 262.66169,400.52585 259.91169,401.74386 C 257.16169,402.96186 253.6782,404.55377 252.17059,405.28142 C 250.48736,406.09383 249.19987,406.23288 248.8345,405.6417 C 247.94166,404.19705 250.47409,401.63815 254.41169,400.00619 C 258.98587,398.11041 267.41169,392.66084 267.41169,391.59818 C 267.41169,389.99456 264.65503,390.79725 258.31154,394.24796 C 247.24448,400.26818 233.20541,406.76162 231.22464,406.77636 C 228.86396,406.79392 219.96046,411.54718 217.81733,413.93405 C 214.61296,417.50282 213.56298,419.98434 212.54822,426.38694 C 211.12741,435.35157 214.2894,441.49 220.99338,442.78165 C 230.82606,444.67611 231.37694,444.46636 240.07369,435.51659 z M 219.5875,437.01659 C 216.94505,434.77974 216.22934,433.31217 215.75199,429.1518 C 215.37301,425.84872 215.56301,423.7911 216.28841,423.34278 C 217.05515,422.86891 217.41169,424.06049 217.41169,427.09679 C 217.41169,429.96508 218.08142,432.3721 219.29727,433.87361 C 220.94711,435.91108 221.95476,436.17479 227.35719,435.98293 C 234.13138,435.74236 234.72695,437.02945 228.62556,438.72399 C 223.475,440.15445 223.24243,440.11051 219.5875,437.01659 z M 223.61169,431.56659 C 221.94315,429.89805 222.11142,427.76659 223.91169,427.76659 C 224.84502,427.76659 225.41169,428.71103 225.41169,430.26659 C 225.41169,433.11724 225.2669,433.2218 223.61169,431.56659 z M 311.41169,434.20757 C 311.41169,433.96503 310.96169,433.76659 310.41169,433.76659 C 309.86169,433.76659 309.41169,434.24315 309.41169,434.82561 C 309.41169,435.40807 309.86169,435.60651 310.41169,435.26659 C 310.96169,434.92667 311.41169,434.45011 311.41169,434.20757 z M 206.02683,414.53791 C 207.6135,413.31214 209.50792,411.73555 210.23666,411.03438 C 214.71146,406.72879 221.29982,403.37611 232.91169,399.49551 C 236.21169,398.39268 241.24632,396.42751 244.09976,395.12848 C 246.95321,393.82944 249.56232,392.76659 249.8978,392.76659 C 250.23328,392.76659 253.01944,391.15989 256.08928,389.19614 C 262.33471,385.20098 262.35519,382.63877 256.12086,385.24364 C 252.2838,386.84686 242.41169,387.35023 242.41169,385.94265 C 242.41169,385.48948 245.78669,384.06025 249.91169,382.76659 C 254.03669,381.47293 257.41169,379.99121 257.41169,379.4739 C 257.41169,378.95071 256.41324,378.8545 255.16169,379.25708 C 251.38763,380.47107 232.41169,381.0998 232.41169,380.01085 C 232.41169,378.92052 237.98736,377.79455 243.47056,377.7776 C 245.42794,377.77154 247.90294,377.1059 248.97056,376.29839 C 250.03818,375.49089 251.64409,374.81589 252.53925,374.79839 C 254.33974,374.76321 257.36121,371.76659 255.59619,371.76659 C 255.01297,371.76659 251.69537,372.42086 248.22374,373.22053 C 244.75211,374.0202 238.31169,374.92129 233.91169,375.22296 C 217.74693,376.33122 214.67691,377.04575 204.48808,382.07119 C 199.23295,384.66318 194.50542,390.27945 192.0196,396.88366 C 189.85454,402.63572 189.69327,403.9001 190.73732,406.93705 C 193.07429,413.73484 195.13368,415.43398 202.52683,416.66423 C 202.86516,416.72053 204.44016,415.76369 206.02683,414.53791 z M 200.41169,410.05598 C 197.50012,409.00015 194.41169,405.38915 194.41169,403.04075 L 194.41169,400.66355 L 196.66169,402.99461 C 197.89919,404.2767 200.18454,405.88134 201.74024,406.56049 C 205.65148,408.26794 204.4195,411.50934 200.41169,410.05598 z M 200.36336,401.92854 C 197.25366,399.41046 198.63958,397.21458 201.96384,399.39272 C 204.33095,400.94371 205.33689,403.76659 203.52247,403.76659 C 203.03341,403.76659 201.61181,402.93947 200.36336,401.92854 z M 187.35473,388.59736 C 188.87919,386.96104 189.10435,386.10119 188.27124,385.09736 C 187.6638,384.36543 186.52897,383.76659 185.74941,383.76659 C 184.96984,383.76659 182.43744,382.76177 180.12185,381.53366 C 175.99447,379.34463 175.96603,379.29414 178.67549,378.9659 C 181.22523,378.65701 180.99287,378.39468 175.67549,375.57887 C 169.16795,372.13282 168.89935,371.9456 169.54153,371.30342 C 169.79627,371.04868 172.45877,371.49334 175.45819,372.29155 C 186.11838,375.12847 187.41762,373.85683 177.41169,370.37956 C 163.40222,365.51097 155.12453,361.44419 142.91169,353.42992 C 136.80083,349.41987 130.66292,343.18202 131.75419,342.09075 C 132.08588,341.75907 133.92678,342.68483 135.8451,344.148 C 141.33135,348.33257 165.97364,360.27442 176.14454,363.67743 C 185.83833,366.92081 187.41169,367.24664 187.41169,366.01074 C 187.41169,365.11123 178.21999,360.77293 176.26991,360.75204 C 174.2494,360.73039 166.12659,357.77487 164.59567,356.50432 C 163.86319,355.89641 159.35964,353.52132 154.58778,351.22635 C 135.95126,342.2633 120.09008,329.6738 107.60523,313.93486 C 105.78667,311.64231 103.87417,309.76659 103.35523,309.76659 C 102.03268,309.76659 102.17684,319.39661 103.56374,323.69559 C 105.82101,330.69245 109.6218,338.30965 112.24647,341.09674 C 113.71234,342.65333 117.72419,345.93856 121.16169,348.39727 C 124.59919,350.85597 127.41169,353.25741 127.41169,353.73378 C 127.41169,355.5193 124.77731,355.39901 120.68363,353.42656 C 118.3582,352.30611 116.11887,351.72608 115.70735,352.1376 C 114.91637,352.92858 124.45132,362.48958 130.48045,366.95106 C 134.70678,370.07849 141.00655,371.95177 147.91169,372.13437 C 151.6307,372.23272 152.91169,372.65089 152.91169,373.76659 C 152.91169,374.59159 151.87325,375.41379 150.60406,375.59369 C 147.64935,376.01252 148.22513,377.69682 152.25711,380.42928 C 155.19698,382.42163 159.43786,383.89612 169.91169,386.56751 C 172.11169,387.12863 175.71169,388.28322 177.91169,389.13327 C 183.34177,391.23136 184.98781,391.13795 187.35473,388.59736 z M 193.41169,380.20757 C 193.41169,379.96503 192.71013,379.76659 191.85267,379.76659 C 190.99521,379.76659 190.57631,380.22393 190.92177,380.7829 C 191.49258,381.70648 193.41169,381.26305 193.41169,380.20757 z M 185.59919,379.08348 C 184.87731,378.79461 184.01482,378.83013 183.68252,379.16242 C 183.35023,379.49471 183.94086,379.73106 184.99502,379.68764 C 186.15997,379.63966 186.39692,379.4027 185.59919,379.08348 z M 252.27883,367.43127 C 256.90639,367.0642 259.33357,365.8145 259.39641,363.76659 C 259.40485,363.49159 253.67424,363.26659 246.66172,363.26659 C 235.64549,363.26659 232.98783,362.93337 227.11779,360.81616 C 223.38115,359.46843 219.83855,357.78093 219.24535,357.06616 C 217.74851,355.26258 219.71933,355.35719 223.41081,357.26614 C 226.53733,358.88292 250.71586,359.79823 252.1546,358.35427 C 254.05384,356.44814 248.28793,354.03086 240.22731,353.35392 C 231.12136,352.58919 216.21396,348.6734 215.61952,346.89008 C 215.14818,345.47607 215.58923,345.49307 222.91169,347.17121 C 226.21169,347.9275 233.07419,348.85463 238.16169,349.23151 C 246.20322,349.82721 247.41169,349.71096 247.41169,348.34166 C 247.41169,347.47537 247.20216,346.76659 246.94607,346.76659 C 246.68998,346.76659 241.5536,346.07941 235.53188,345.23953 C 224.19814,343.65874 214.88795,341.17401 200.5823,335.91208 C 192.10136,332.7926 189.96751,332.67922 182.28203,334.93971 C 179.32633,335.80905 178.41671,336.72134 177.38319,339.85294 C 176.29546,343.1488 176.35902,344.34015 177.82776,348.186 C 181.22411,357.07921 193.31003,364.03143 211.41169,367.50459 C 215.77341,368.34147 241.38331,368.29552 252.27883,367.43127 z M 198.9506,359.91165 C 191.75608,358.51488 190.52837,357.92158 186.2006,353.75016 C 182.68162,350.35831 181.41169,348.37837 181.41169,346.28376 L 181.41169,343.43326 L 185.05713,347.0787 C 187.06212,349.08369 189.53712,350.98901 190.55713,351.31275 C 191.57714,351.63649 192.41169,352.28127 192.41169,352.74561 C 192.41169,353.20994 195.67419,354.83592 199.66169,356.3589 C 211.58325,360.91218 211.30349,362.3099 198.9506,359.91165 z M 197.41169,351.63925 C 197.41169,351.12219 195.72993,349.70687 193.67444,348.49411 C 188.66556,345.53879 191.77137,344.88911 197.33627,347.72811 C 201.84004,350.02577 202.43466,351.26582 199.41169,352.05634 C 198.31169,352.344 197.41169,352.1563 197.41169,351.63925 z M 170.28413,351.113 C 169.52929,350.20353 168.68669,346.99192 168.41169,343.97608 C 167.97086,339.14164 167.55667,338.30165 164.91169,336.87801 C 152.06126,329.96136 139.16683,319.76659 143.26902,319.76659 C 143.74055,319.76659 148.23158,322.46659 153.24908,325.76659 C 158.26658,329.06659 162.95565,331.76659 163.66924,331.76659 C 164.38283,331.76659 165.96759,332.46766 167.19094,333.32452 C 169.78002,335.13799 172.13858,334.34736 170.39759,332.24961 C 169.78643,331.5132 166.95208,329.69129 164.09904,328.20092 C 150.25468,320.96892 121.41169,297.0247 121.41169,292.76371 C 121.41169,292.21529 120.82801,291.76659 120.11464,291.76659 C 117.39512,291.76659 102.80844,273.55169 103.99303,271.63498 C 105.00001,270.00566 106.07215,270.76589 109.46725,275.51659 C 114.11435,282.01921 135.90848,303.645 141.96984,307.76812 C 144.68786,309.617 148.75803,312.62301 151.01468,314.44815 C 153.27132,316.27329 155.44025,317.76659 155.8345,317.76659 C 156.22876,317.76659 158.43242,319.03655 160.73151,320.58873 C 165.35209,323.7082 177.89943,330.76659 178.82417,330.76659 C 179.14731,330.76659 179.41169,330.16311 179.41169,329.42552 C 179.41169,328.68793 177.04919,326.80249 174.16169,325.23564 C 167.72448,321.74262 161.57571,317.83344 158.91169,315.54021 C 157.81169,314.59331 154.57213,312.11938 151.71266,310.04258 C 137.90127,300.01153 125.03236,287.61707 111.45235,271.26659 C 106.08552,264.80486 97.193489,249.75664 92.459829,239.12502 C 90.410019,234.52121 88.502469,230.52404 88.220849,230.24241 C 87.939219,229.96079 86.481709,231.50106 84.981929,233.66523 C 82.515409,237.22443 82.244919,238.49118 82.148849,246.93335 C 82.068829,253.96441 82.456629,257.00658 83.720999,259.26659 C 84.644099,260.91659 85.402139,262.79462 85.405529,263.43999 C 85.408919,264.08537 86.947369,266.62524 88.824299,269.08416 C 90.701239,271.54308 92.873879,274.77062 93.652399,276.25647 C 94.430909,277.74231 97.282729,280.15422 99.989779,281.61626 C 102.69683,283.07829 104.91169,284.71656 104.91169,285.25685 C 104.91169,287.49708 101.39696,286.63841 97.080629,283.34368 L 92.473819,279.82722 L 93.093519,283.04691 C 94.122709,288.39405 98.167159,295.1628 103.74918,300.88011 C 109.25779,306.52224 112.69207,308.36815 123.18944,311.32923 C 130.73287,313.45707 130.89701,315.40427 123.4937,314.93871 L 118.27979,314.61084 L 119.77357,317.4995 C 121.74145,321.30496 127.383,326.76561 129.35153,326.77033 C 130.20961,326.77238 132.38506,327.67238 134.18586,328.77033 C 135.98665,329.86827 138.68665,330.77273 140.18586,330.78024 C 143.56007,330.79715 147.41341,331.78599 147.40659,332.63322 C 147.40379,332.98157 145.71629,333.97497 143.65659,334.84078 L 139.91169,336.41496 L 144.85747,339.59078 C 149.07611,342.29968 150.73011,342.76659 156.10747,342.76659 C 162.7964,342.76659 163.81414,343.58503 160.16169,346.02688 C 157.93214,347.51745 157.95714,347.55396 162.91169,350.0432 C 165.66169,351.42484 168.75429,352.60282 169.78413,352.66093 C 171.41451,352.75293 171.47915,352.55281 170.28413,351.113 z M 246.41169,338.47924 C 246.41169,336.4612 245.20488,335.80031 236.16169,332.866 C 224.48262,329.0764 216.41169,325.08083 216.41169,323.08861 C 216.41169,321.66064 220.07119,322.09906 223.70281,323.96211 C 227.02633,325.6671 243.33639,330.76659 245.46607,330.76659 C 249.37647,330.76659 246.9041,328.61553 239.83041,325.86335 C 235.9669,324.36017 230.12966,321.64369 226.85877,319.82673 C 223.58788,318.00977 219.68314,315.87444 218.18157,315.08155 C 214.99648,313.3997 214.05228,312.15715 214.90764,310.77315 C 215.26774,310.19049 218.28999,311.28344 222.21665,313.41635 C 225.89892,315.41651 233.41169,318.72708 238.91169,320.77318 C 244.41169,322.81927 249.69919,324.82798 250.66169,325.23696 C 251.89258,325.75999 252.41169,325.52387 252.41169,324.44097 C 252.41169,323.59419 251.39919,322.59599 250.16169,322.22275 C 241.51167,319.61382 215.82895,306.60093 205.40359,299.54475 C 200.43669,296.18301 194.2918,291.20767 191.74828,288.48844 C 186.45694,282.83157 183.16723,281.46107 175.41169,281.68258 C 171.20092,281.80285 169.50148,282.32588 168.16169,283.91391 C 165.9372,286.55056 165.8718,293.43105 168.02321,298.48266 C 170.96889,305.39924 173.86038,310.76659 174.6408,310.76659 C 175.06479,310.76659 175.41169,311.66659 175.41169,312.76659 C 175.41169,313.86659 175.90514,314.76659 176.50824,314.76659 C 177.11134,314.76659 179.6497,316.56659 182.14903,318.76659 C 184.64836,320.96659 187.10111,322.76659 187.59958,322.76659 C 188.09806,322.76659 191.9722,324.67542 196.20879,327.00844 C 206.80026,332.84097 213.84489,335.62596 220.91169,336.77437 C 224.21169,337.31065 229.83669,338.37464 233.41169,339.13881 C 236.98669,339.90297 241.37419,340.58183 243.16169,340.64739 C 245.91586,340.7484 246.41169,340.41762 246.41169,338.47924 z M 187.2701,317.47149 C 183.87782,315.92418 178.42252,311.02382 176.09247,307.4309 C 171.48079,300.31972 170.77093,291.70677 174.73361,290.94327 C 176.10405,290.67922 176.41169,291.44644 176.41169,295.12817 C 176.41169,297.60769 176.87973,300.90319 177.45177,302.45149 C 178.42061,305.07377 189.99482,316.7225 191.66169,316.75291 C 192.07419,316.76043 192.41169,317.21659 192.41169,317.76659 C 192.41169,319.07379 190.54852,318.96686 187.2701,317.47149 z M 186.19518,307.01659 C 185.35561,306.05409 184.08719,304.14159 183.37647,302.76659 C 182.14805,300.39002 182.17873,300.33831 183.99797,301.71914 C 187.82416,304.62328 190.41169,307.13337 190.41169,307.9409 C 190.41169,309.4007 187.76957,308.82151 186.19518,307.01659 z M 253.16934,313.67143 C 252.84419,310.82412 252.01898,310.20185 242.86379,305.90034 C 228.90441,299.34161 222.11663,295.49896 221.59047,293.85724 C 221.30157,292.95579 221.63844,292.65926 222.52524,293.03442 C 223.28779,293.35702 230.62772,296.57872 238.8362,300.19377 C 247.04469,303.80882 253.90719,306.76659 254.0862,306.76659 C 254.26522,306.76659 254.41169,305.86659 254.41169,304.76659 C 254.41169,303.66659 253.84919,302.76172 253.16169,302.75578 C 249.54131,302.72446 223.41169,285.14053 223.41169,282.73551 C 223.41169,281.74926 230.50326,285.23074 238.91169,290.34497 C 247.92641,295.82796 255.2008,299.31082 255.98989,298.52173 C 257.09791,297.4137 255.71434,296.33432 248.1569,292.41092 C 236.43796,286.3271 226.9618,279.49172 226.57754,276.84521 C 226.17135,274.04762 225.83934,273.90802 236.91169,281.19009 C 247.15814,287.92898 255.89439,292.48304 259.46817,292.9484 C 264.1409,293.55687 262.34521,291.24313 255.15033,287.38486 C 236.77161,277.52924 213.26112,259.5712 207.77473,251.19791 C 203.77388,245.09183 187.52405,240.51137 183.64043,244.39499 C 179.76637,248.26906 180.88359,260.84411 185.99864,270.93817 C 189.23217,277.31923 197.07937,287.10471 200.41169,288.91126 C 202.60454,290.10008 208.91443,294.54743 213.4229,298.08187 C 219.33404,302.71593 240.13611,313.45709 246.91169,315.37382 C 253.26971,317.17243 253.56011,317.09343 253.16934,313.67143 z M 198.28828,279.32395 C 190.6131,273.69124 188.91169,270.5054 188.91169,261.76659 C 188.91169,255.76659 189.21169,254.26659 190.41169,254.26659 C 191.50817,254.26659 192.08161,255.88066 192.54335,260.26659 C 193.29612,267.41701 195.10754,271.18159 200.43862,276.6749 C 204.16992,280.51976 205.38058,282.79862 203.66169,282.7418 C 203.24919,282.72816 200.83116,281.19013 198.28828,279.32395 z M 198.89187,268.57605 C 195.73231,264.89109 194.33434,261.93243 195.43217,261.25393 C 196.90086,260.34623 198.17986,261.47579 199.98089,265.27118 C 202.06743,269.66824 201.44581,271.55469 198.89187,268.57605 z M 168.41169,313.96852 C 168.41169,313.52959 166.65543,309.5874 164.50889,305.20811 C 162.36235,300.82882 160.28008,295.07174 159.88162,292.41461 C 159.31146,288.61253 158.3949,286.91068 155.5787,284.42502 C 143.32935,273.61339 136.22813,265.61682 137.63078,264.21417 C 137.91468,263.93026 142.68456,268.21341 148.23051,273.73228 C 153.77646,279.25115 158.56102,283.76659 158.86287,283.76659 C 159.16472,283.76659 159.41169,283.04957 159.41169,282.17322 C 159.41169,281.29687 154.97297,276.35936 149.54786,271.20099 C 132.2298,254.73438 116.75104,233.47473 110.43507,217.48065 C 107.10339,209.04376 108.70594,209.33869 112.78277,217.91272 C 114.70593,221.95735 118.77975,228.64159 121.8357,232.76659 C 124.89165,236.89159 128.84323,242.29159 130.61697,244.76659 C 137.70209,254.65282 161.31857,277.19305 162.91698,275.59463 C 163.17497,275.33664 159.22079,270.8823 154.12992,265.69608 C 142.51712,253.86578 131.41169,240.99201 131.41169,239.36039 C 131.41169,239.07247 128.86645,234.65859 125.75559,229.55175 C 115.80116,213.21034 108.55277,196.78108 103.15054,178.31497 C 102.35382,175.59157 101.27678,173.22162 100.75713,173.0484 C 98.943229,172.44377 95.281419,178.8973 93.377469,186.05422 C 90.826899,195.64176 90.839189,203.70567 93.411689,208.50541 C 94.511689,210.55777 95.411689,212.73711 95.411689,213.34838 C 95.411689,213.95965 97.077989,216.17552 99.114569,218.27252 L 102.81744,222.08524 L 99.864569,221.348 C 98.240489,220.94252 96.121429,219.89859 95.155559,219.02814 C 94.189689,218.1577 93.114449,217.7305 92.766139,218.07881 C 91.018589,219.82636 98.546849,238.95925 103.77151,246.0487 C 106.03422,249.11903 112.86243,254.1401 116.22753,255.20814 C 117.32948,255.55789 118.77682,256.50162 119.44383,257.30532 C 120.45608,258.52501 120.21482,258.76659 117.98448,258.76659 C 116.51482,258.76659 113.9429,258.05841 112.2691,257.19285 C 110.5953,256.3273 109.0544,255.79055 108.84487,256.00008 C 108.18771,256.65724 118.43259,270.13458 121.74918,272.97595 C 123.48856,274.4661 125.60919,275.7036 126.46169,275.72595 C 127.31419,275.7483 128.43919,276.15025 128.96169,276.61916 C 129.48419,277.08808 132.07381,278.05346 134.71641,278.76445 C 140.44153,280.30479 139.69218,281.83106 133.08526,282.08676 L 128.50161,282.26415 L 131.70665,285.60591 C 135.45394,289.51304 145.27064,294.76659 148.82415,294.76659 C 150.18238,294.76659 151.57177,295.21659 151.91169,295.76659 C 152.25479,296.32174 151.50256,296.7734 150.22071,296.7819 C 144.45005,296.82017 145.341,298.43232 155.62492,306.56066 C 165.15668,314.09449 168.41169,315.98024 168.41169,313.96852 z M 153.13691,290.75593 C 149.05975,287.16706 147.05287,283.76659 149.01197,283.76659 C 150.33827,283.76659 158.59269,292.72359 158.24039,293.78049 C 158.0316,294.40687 155.74523,293.05186 153.13691,290.75593 z M 180.41169,272.66659 C 180.41169,271.5126 175.34282,266.1857 171.89224,263.71346 C 169.10384,261.71566 163.04045,253.8045 163.75217,253.09277 C 164.07205,252.7729 166.64996,254.59365 169.48088,257.13889 C 179.45945,266.11048 178.02102,260.73488 167.51929,249.80818 C 157.96676,239.8691 147.25729,223.76659 150.19952,223.76659 C 150.60561,223.76659 153.94379,227.70409 157.61772,232.51659 C 161.29164,237.32909 166.06242,242.98601 168.21945,245.08753 C 171.82876,248.60396 172.18393,248.74554 172.67594,246.86408 C 173.04456,245.4545 172.07031,243.49174 169.53843,240.54314 C 157.34232,226.33961 141.49663,200.85466 135.16934,185.26659 C 129.84099,172.13954 125.64298,159.49174 124.84251,154.15381 C 123.92418,148.02996 125.78973,149.03372 127.36959,155.51351 C 128.55394,160.37115 131.31234,166.24639 131.37625,164.04749 C 131.39574,163.37698 130.28669,159.38204 128.91169,155.16984 C 127.53669,150.95764 126.41169,146.47304 126.41169,145.20405 C 126.41169,143.93505 125.92511,141.62999 125.33039,140.08169 C 124.73568,138.53338 124.04562,135.01659 123.79693,132.26659 C 123.54823,129.51659 123.0916,125.69159 122.78219,123.76659 C 122.47277,121.84159 122.16628,117.00409 122.10109,113.01659 C 122.03589,109.02909 121.72996,105.76659 121.42123,105.76659 C 120.72692,105.76659 110.37585,119.42938 108.72698,122.52224 C 106.97816,125.80257 104.41169,136.38153 104.41169,140.30984 C 104.41169,146.16113 108.089,153.92443 113.98319,160.51659 C 119.81529,167.03931 119.30605,169.23042 113.19649,163.90151 C 111.38985,162.32572 108.85477,160.70629 107.56297,160.30279 C 105.58926,159.68629 105.30249,159.86433 105.76687,161.41787 C 107.35165,166.71956 110.41169,179.32671 110.41169,180.5542 C 110.41169,183.33049 117.91848,194.06142 121.39656,196.25704 C 129.5577,201.40894 128.51141,203.78805 120.06063,199.29472 C 116.22305,197.25426 115.41169,197.0965 115.41169,198.3908 C 115.41169,200.71147 124.39017,216.76659 125.68795,216.76659 C 126.30082,216.76659 127.95187,217.85011 129.35697,219.17441 C 130.76206,220.49871 134.61169,223.19755 137.91169,225.17184 C 143.46046,228.49149 143.68607,228.76118 140.91169,228.75786 C 139.26169,228.75588 136.62275,228.08204 135.04738,227.26043 C 130.25955,224.7634 130.20468,225.48294 134.66169,232.31831 C 139.34135,239.49516 143.33477,243.64129 147.37565,245.51848 C 150.74388,247.0832 161.41169,253.76362 161.41169,254.30817 C 161.41169,254.4503 159.83669,254.56659 157.91169,254.56659 C 155.98669,254.56659 154.41169,254.20973 154.41169,253.77358 C 154.41169,253.33742 153.73669,252.72155 152.91169,252.40496 C 152.08669,252.08838 151.41169,252.32318 151.41169,252.92674 C 151.41169,254.42855 168.42505,271.77503 170.91169,272.80855 C 173.87246,274.03915 180.41169,273.94143 180.41169,272.66659 z M 176.16586,239.00408 C 176.37441,238.37844 174.77519,235.93157 172.61205,233.56658 C 167.77471,228.27785 152.48627,207.07932 151.33924,204.07028 C 150.87876,202.8623 149.13169,199.98229 147.45685,197.67024 C 145.78201,195.35819 144.41169,193.09179 144.41169,192.63379 C 144.41169,192.1758 142.42519,187.63081 139.99726,182.53383 C 137.56932,177.43685 134.86341,171.51 133.98413,169.36305 C 131.58302,163.50025 130.90837,165.81545 133.23099,171.94759 C 139.59559,188.75131 150.04982,207.12036 164.63689,227.13069 C 166.98803,230.35595 169.59459,234.18095 170.42924,235.63069 C 173.18559,240.4183 173.58512,240.87545 174.69083,240.50688 C 175.29355,240.30597 175.95732,239.62971 176.16586,239.00408 z M 463.02657,476.67829 C 459.65842,474.02891 457.19936,469.29943 456.84264,464.78483 C 456.68975,462.8498 455.78217,458.11659 454.82581,454.26659 C 453.52734,449.03934 452.36968,446.67862 450.25458,444.94488 C 446.26683,441.67612 438.7335,441.07799 429.91169,443.3297 C 425.64961,444.41756 419.00038,445.145 412.91169,445.18952 C 404.41621,445.25164 402.50267,444.96203 400.19311,443.26461 C 398.6979,442.1657 397.4604,440.46636 397.44311,439.48831 C 397.409,437.55762 406.52875,428.58284 411.70401,425.45412 C 415.76536,422.99881 416.11879,422.41427 417.48003,415.90121 C 418.42282,411.39022 419.48826,409.66302 424.17062,405.0549 L 429.73985,399.57397 L 429.99207,392.42028 C 430.27395,384.42547 431.2832,381.1072 434.84993,376.44826 C 437.10778,373.499 439.47994,372.01948 449.8111,367.11699 C 451.95577,366.09927 455.93607,363.24159 458.65621,360.76659 C 462.90687,356.89902 463.66467,355.63416 464.04817,351.76659 C 464.62517,345.94867 462.88567,342.74543 457.88453,340.4166 C 449.29373,336.41621 445.34376,330.06737 444.62805,319.10929 C 444.1191,311.31703 446.97967,299.19995 449.90045,296.77592 C 450.73163,296.0861 451.41888,295.0143 451.42766,294.39415 C 451.46192,291.9762 466.85457,275.25885 470.74767,273.41146 C 472.54597,272.55812 474.86387,270.9244 475.89867,269.78098 C 476.93347,268.63755 479.38467,266.7345 481.34587,265.55197 C 483.30707,264.36945 486.93667,261.78068 489.41167,259.79915 C 493.51747,256.51201 500.26907,251.74943 504.30857,249.29091 C 512.64207,244.219 518.63857,240.64714 522.41167,238.50766 C 528.61927,234.9878 540.29287,226.52997 543.91167,222.9303 C 545.56167,221.28906 551.82917,215.5972 557.83937,210.28174 C 564.31647,204.55346 570.31817,198.23033 572.57527,194.75664 C 574.66977,191.5333 579.42727,184.84946 583.14757,179.90368 C 586.86787,174.95789 590.81167,169.43268 591.91167,167.62543 C 593.01167,165.81818 595.15757,162.29811 596.68037,159.80305 C 600.62437,153.3408 604.41167,146.00462 604.41167,144.82717 C 604.41167,144.27392 605.49867,141.44646 606.82707,138.54393 C 611.26917,128.83869 613.74067,113.14881 613.48687,96.266586 C 613.29837,83.736216 611.10627,73.968686 606.42147,64.785746 C 605.31607,62.619026 604.41167,60.110306 604.41167,59.210796 C 604.41167,58.311286 603.56757,56.380858 602.53587,54.920958 C 601.50417,53.461058 599.62647,49.852448 598.36337,46.901838 C 595.70917,40.702078 596.13817,39.383048 601.75677,36.467268 C 605.00867,34.779658 605.85587,34.704368 608.68667,35.851378 C 614.73357,38.301548 627.60777,49.878708 633.61297,58.266586 C 635.58187,61.016586 638.14217,66.351926 639.30257,70.122906 C 640.62597,74.423746 642.31137,77.686396 643.82437,78.876556 C 646.78617,81.206336 651.40967,90.240506 651.41727,93.712936 C 651.42077,95.324756 652.98827,97.957626 655.66727,100.85162 C 658.00167,103.37338 660.81167,106.94123 661.91167,108.78016 C 663.01167,110.61909 665.15157,114.18082 666.66707,116.69513 C 669.93897,122.12364 669.62937,121.3713 672.45677,130.76659 C 674.59367,137.86779 674.63977,138.66539 673.32197,145.76659 C 671.55107,155.31036 671.66057,162.73804 673.59337,164.17667 C 674.39877,164.77613 677.87907,171.0288 681.32737,178.07149 L 687.59687,190.8764 L 687.49417,206.86864 L 687.39147,222.86089 L 690.28467,225.56374 C 696.42627,231.30124 698.48947,239.75649 696.51487,251.09565 C 695.23087,258.46905 690.62307,269.48959 686.64197,274.70916 C 685.00097,276.86058 683.93337,279.62627 683.80987,282.04606 C 683.62417,285.68245 680.63777,293.70303 676.46717,301.76659 C 675.36277,303.90177 674.38757,308.75461 673.96627,314.21139 C 673.58647,319.13103 672.70197,324.53103 672.00067,326.21139 C 671.29937,327.89175 670.41507,330.84159 670.03567,332.76659 C 669.65617,334.69159 668.02777,338.06659 666.41697,340.26659 C 661.24277,347.33308 660.15297,349.74986 661.44057,351.3014 C 662.32497,352.367 662.22317,353.43817 661.00557,355.87892 C 657.33327,363.2401 651.56477,368.98077 642.56467,374.23083 C 641.65557,374.76116 639.11167,376.37822 636.91167,377.8243 C 632.31047,380.84873 621.77617,385.76659 619.89897,385.76659 C 619.19997,385.76659 613.18547,387.56659 606.53367,389.76659 C 599.88177,391.96659 593.48777,393.76659 592.32477,393.76659 C 590.40387,393.76659 590.25277,394.20138 590.67387,398.51659 C 591.29087,404.83919 588.82127,413.84671 586.28937,414.50883 C 585.23737,414.78392 584.49907,415.72712 584.64557,416.60857 C 585.21017,420.00389 571.62077,421.80796 565.06077,419.20858 C 562.24157,418.09146 561.50007,420.40984 563.04007,425.52684 C 566.58137,437.29376 563.14717,445.94849 553.82917,448.73954 C 551.12457,449.54966 546.75897,450.06968 544.12797,449.89512 C 538.43127,449.51719 536.17147,450.96137 537.04067,454.42438 C 537.85967,457.68747 535.02117,464.80846 531.59197,468.09384 C 529.70117,469.90535 526.92207,471.10986 522.93107,471.84764 C 517.66757,472.82065 516.67547,472.72112 513.42437,470.89388 C 509.62037,468.75592 505.93837,468.9518 505.02157,471.34088 C 504.73087,472.09835 502.41777,473.69359 499.88137,474.88586 C 495.87947,476.76694 494.16517,476.97568 486.91817,476.46426 C 480.31637,475.99836 478.31527,476.17779 477.36677,477.32074 C 475.44787,479.63289 466.25937,479.22125 463.02657,476.67829 z M 475.36817,473.65583 L 477.82467,471.61162 L 475.46587,459.9391 C 473.39117,449.67244 469.06477,437.78019 467.84737,438.99757 C 467.61097,439.23399 468.14567,441.56431 469.03557,444.17607 C 470.60377,448.77859 470.05657,451.47861 467.86037,449.97495 C 467.29127,449.58535 465.53687,446.6849 463.96167,443.52951 C 462.38657,440.37412 460.20677,436.99912 459.1179,436.02951 C 457.15954,434.2857 457.15575,434.30113 458.76781,437.45324 C 460.35527,440.55732 460.07397,444.2939 458.33367,443.21837 C 456.90449,442.33509 452.14743,431.0126 450.73556,425.13381 C 449.95158,421.86939 452.11313,421.37136 453.6001,424.47381 C 455.59519,428.63643 459.26911,429.48522 465.04017,427.11682 C 469.30537,425.36643 469.94257,424.69961 470.68897,421.20524 C 471.74897,416.24342 470.10597,410.19869 466.72217,406.61044 C 465.00907,404.79385 464.41817,403.32167 464.85257,401.95282 C 466.00297,398.32833 468.24677,398.6794 473.44647,403.29745 C 478.99557,408.22591 481.91377,408.7929 486.84277,405.90034 C 492.83417,402.3843 492.67107,395.37797 486.37837,385.9546 C 481.99557,379.39124 481.67837,378.26197 483.97067,377.38232 C 484.97707,376.99613 486.74767,378.11019 488.96587,380.52534 C 490.85587,382.58303 492.40427,384.55595 492.40687,384.9096 C 492.41947,386.59361 496.00987,386.59251 499.75637,384.90736 C 508.02087,381.18993 510.63627,375.35148 507.30987,368.04543 C 506.25287,365.72379 504.38077,363.29065 503.14987,362.63845 C 500.44617,361.20601 497.40597,357.87248 497.42697,356.36358 C 497.46967,353.30493 498.92397,352.96809 505.11647,354.58252 L 511.32127,356.20015 L 513.96167,353.73337 C 515.41387,352.37664 517.72277,349.36127 519.09257,347.03255 C 521.54057,342.87065 521.55547,342.7155 519.96467,337.92618 C 517.17017,329.51269 510.82277,325.38754 502.93807,326.86057 C 497.84087,327.81282 494.41167,327.3331 494.41167,325.66782 C 494.41167,324.55208 495.43717,324.16891 500.84057,323.26563 C 503.34217,322.84744 505.94337,321.43492 508.00097,319.37732 C 514.90247,312.47581 514.25947,302.73523 506.55467,297.46674 C 501.49797,294.00902 497.10817,294.47918 492.51437,298.97051 C 487.23987,304.12724 484.76727,300.80273 488.94097,294.16607 C 490.65347,291.4429 496.70867,288.59545 501.29667,288.35577 C 503.38587,288.24662 507.57227,286.60518 511.21527,284.46675 C 514.68227,282.43166 517.83227,280.75764 518.21527,280.7467 C 518.59827,280.73576 521.61167,278.93209 524.91167,276.73856 C 528.21167,274.54502 532.71167,271.55467 534.91167,270.09334 C 539.97077,266.73288 552.69027,256.61403 553.59377,255.23099 C 553.96897,254.65674 556.77957,251.50483 559.83977,248.22675 C 562.89987,244.94866 567.02587,239.18932 569.00867,235.42821 C 572.17597,229.42011 572.61947,227.69821 572.66147,221.24641 C 572.71407,213.18501 573.57197,210.52684 575.49917,212.45407 C 576.67147,213.62632 576.26967,226.22772 574.82767,233.51659 C 574.30787,236.14409 574.50507,236.76659 575.85717,236.76659 C 576.77707,236.76659 577.26147,237.20059 576.93367,237.73104 C 576.60587,238.26149 577.91477,238.03649 579.84257,237.23104 C 581.77027,236.42559 584.06217,235.76659 584.93567,235.76659 C 586.41367,235.76659 601.44367,220.82349 602.29557,218.5071 C 602.52157,217.89265 601.90457,217.71343 600.79557,218.0714 C 593.85657,220.3112 590.38607,221.0743 589.80067,220.48894 C 588.67107,219.3593 591.51497,216.76659 593.88367,216.76659 C 595.10857,216.76659 598.09097,215.42478 600.51117,213.78479 C 602.93147,212.1448 605.36167,210.79036 605.91167,210.77494 C 606.46167,210.75952 609.95707,206.39525 613.67917,201.07658 C 620.64297,191.12588 621.05627,188.60058 615.24697,191.49864 C 613.61897,192.31078 612.06637,192.75464 611.79677,192.48499 C 611.02427,191.71247 617.93517,187.76659 620.06077,187.76659 C 621.40857,187.76659 623.55017,185.10375 627.30977,178.75326 C 630.24457,173.79594 633.04317,169.49438 633.52877,169.19425 C 634.50657,168.58994 634.76187,163.76659 633.81607,163.76659 C 633.48847,163.76659 632.02597,164.61064 630.56607,165.64225 C 627.96337,167.48142 621.41167,169.44665 621.41167,168.3882 C 621.41167,168.09268 623.54237,166.60225 626.14647,165.07612 C 630.36587,162.60342 635.65407,157.63746 637.61437,154.30706 C 638.70777,152.44955 643.41167,134.22018 643.41167,131.84056 C 643.41167,129.51359 643.91327,129.35488 635.03107,134.49251 C 631.53037,136.51738 631.74817,133.19577 635.31277,130.19637 C 639.72887,126.48045 644.31367,119.25448 644.97117,114.97384 C 645.74117,109.96168 643.88977,91.526176 642.32377,88.611636 L 641.06387,86.266586 L 640.37547,88.824986 C 638.02577,97.558206 634.99347,98.003726 635.66827,89.516586 C 636.18677,82.994526 634.11787,74.452296 630.67757,68.910786 C 625.44547,60.483256 609.41167,49.095878 609.41167,53.807548 C 609.41167,54.380078 610.75347,57.426728 612.39347,60.577876 C 614.06577,63.791056 616.07147,70.031266 616.96037,74.786906 C 617.83217,79.450736 619.14377,86.191586 619.87497,89.766586 C 622.05527,100.42509 619.79027,118.80281 614.26727,135.26659 C 606.87917,157.29021 600.97087,167.50012 578.41167,197.22681 C 575.93667,200.48817 568.73667,208.36056 562.41167,214.72099 C 549.87397,227.32896 541.57377,233.40533 512.49107,251.26659 C 495.56947,261.65902 490.71387,264.84957 488.05087,267.32594 C 487.42437,267.90858 484.54917,269.6676 481.66167,271.23487 C 478.77417,272.80214 476.41167,274.5837 476.41167,275.1939 C 476.41167,275.8041 475.32797,276.97008 474.00347,277.78497 C 470.19927,280.12548 461.16927,289.03968 458.24387,293.3426 C 454.88507,298.28292 450.36625,308.96256 449.29993,314.48045 C 448.29881,319.6609 450.13194,326.39997 453.87828,331.31168 C 455.96655,334.04953 457.2145,334.76659 459.89115,334.76659 C 465.78577,334.76659 469.36207,340.40439 469.65087,350.15223 C 469.81617,355.72787 469.47497,357.06785 466.96927,360.68351 C 463.31997,365.9494 456.96694,370.57287 447.24415,375.03855 C 436.60586,379.92472 434.2597,383.47466 434.51081,394.3051 C 434.6984,402.39563 434.25547,403.36294 428.90101,406.55644 C 426.53714,407.96629 420.6008,418.35567 419.92446,422.26659 C 419.07399,427.18443 418.073,428.46243 414.44799,429.25862 C 408.25417,430.61901 400.71991,440.51968 404.71257,442.05181 C 407.31408,443.0501 425.07804,442.01543 427.47627,440.72592 C 432.33981,438.11084 443.7916,436.24008 448.979,437.21324 C 451.52004,437.68994 452.77519,438.59246 453.4818,440.45099 C 454.02063,441.86824 455.26864,444.20653 456.25514,445.6472 C 458.34037,448.69243 459.99667,454.20007 460.95227,461.26659 C 461.71977,466.94185 463.43367,470.26784 467.26207,473.51162 C 470.51327,476.26639 472.19517,476.29632 475.36817,473.65583 z M 467.65037,467.34653 C 465.59787,465.4655 464.25627,463.58873 464.66907,463.17593 C 465.08187,462.76312 466.43027,463.34591 467.66567,464.47102 C 468.90097,465.59612 470.92417,467.03873 472.16167,467.67681 C 473.39917,468.31489 474.41167,469.27112 474.41167,469.80177 C 474.41167,471.79586 471.25437,470.64934 467.65037,467.34653 z M 458.08472,420.10628 C 457.72155,419.74312 458.35947,418.79104 459.50232,417.99056 C 461.73067,416.42979 464.22277,417.64515 462.96557,419.67946 C 462.22577,420.87647 459.12598,421.14755 458.08472,420.10628 z M 480.98587,401.09937 C 480.06497,398.69956 481.95787,397.14507 483.86927,398.73142 C 484.71767,399.43545 485.41167,400.63138 485.41167,401.38903 C 485.41167,403.34291 481.75497,403.10359 480.98587,401.09937 z M 499.92867,376.78535 C 498.46137,375.16398 498.36457,374.52824 499.39617,373.28535 C 500.79407,371.60089 503.97767,371.25531 504.86537,372.69165 C 505.50717,373.73011 503.46837,378.76659 502.40617,378.76659 C 502.02967,378.76659 500.91487,377.87503 499.92867,376.78535 z M 511.63627,344.53722 C 511.05117,343.83222 510.26257,342.02042 509.88367,340.511 C 509.26817,338.05863 509.46487,337.76659 511.73187,337.76659 C 514.46507,337.76659 517.72117,340.33824 517.15157,342.04708 C 516.95937,342.62367 515.87917,343.70824 514.75107,344.45723 C 513.08767,345.56167 512.49907,345.57679 511.63627,344.53722 z M 504.63547,311.53622 C 504.05087,310.83177 503.27317,309.06285 502.90737,307.60528 C 502.37287,305.47571 502.64997,304.82575 504.31797,304.29633 C 507.00467,303.4436 508.06247,304.15931 508.64877,307.22667 C 509.24947,310.36888 506.29747,313.53879 504.63547,311.53622 z M 555.41167,242.32329 C 555.41167,241.52948 556.30787,240.25231 557.40317,239.48513 C 559.87927,237.75078 564.56637,231.3438 567.34837,225.89074 C 569.90287,220.88353 571.84977,220.40491 570.90427,225.01659 C 569.88977,229.96442 566.63767,235.85517 562.62327,240.01659 C 558.95367,243.82059 555.41167,244.95353 555.41167,242.32329 z M 498.90907,468.51659 C 500.41497,467.2179 501.91347,464.50106 502.45327,462.09083 C 503.29617,458.32713 503.01127,457.09367 499.56637,449.59083 C 497.46417,445.0125 495.46287,440.14159 495.11897,438.76659 C 494.77507,437.39159 492.22517,433.58607 489.45267,430.30987 C 486.68017,427.03368 484.41167,424.10442 484.41167,423.80042 C 484.41167,423.49641 483.46917,422.65908 482.31727,421.93967 C 480.60707,420.87166 480.78647,421.45094 483.29487,425.09685 C 487.42717,431.10291 492.70527,440.80639 492.14477,441.3669 C 491.89577,441.6158 490.16657,440.00775 488.30197,437.79345 C 486.43727,435.57916 483.39697,431.96726 481.54567,429.76703 C 479.69437,427.56679 477.74407,425.76659 477.21167,425.76659 C 476.67927,425.76659 477.74397,427.59736 479.57767,429.83498 C 483.84867,435.04666 486.30287,439.65454 486.36367,442.57561 C 486.42557,445.55132 484.98707,444.63835 481.89427,439.73891 C 479.03127,435.20362 472.80437,428.76659 471.28017,428.76659 C 470.69447,428.76659 471.18927,430.22909 472.37957,432.01659 C 473.56997,433.80409 475.21727,436.84159 476.04027,438.76659 C 476.86327,440.69159 478.13307,443.61659 478.86197,445.26659 C 479.59097,446.91659 480.71087,451.41659 481.35077,455.26659 C 483.83747,470.22861 483.97527,470.42572 492.10597,470.65059 C 495.13247,470.73429 497.02647,470.14018 498.90907,468.51659 z M 488.87057,465.70006 C 488.00367,464.29742 488.05907,464.26395 494.16167,462.50168 C 498.17747,461.34204 499.41167,461.27608 499.41167,462.22112 C 499.41167,465.6641 490.63797,468.55974 488.87057,465.70006 z M 490.41167,457.80177 C 490.41167,456.18239 494.49497,454.44985 495.63197,455.58682 C 496.18497,456.13985 496.33507,457.08153 495.96557,457.67946 C 495.13457,459.024 490.41167,459.12801 490.41167,457.80177 z M 527.73127,464.01659 C 530.29757,462.07856 531.84757,459.79029 532.98057,456.26659 C 534.52187,451.4732 534.50097,451.08064 532.47417,446.76659 C 531.31137,444.29159 529.35917,440.70868 528.13587,438.80457 C 525.89557,435.31741 508.47847,417.77229 507.25337,417.76858 C 506.89127,417.76749 504.10917,415.74159 501.07077,413.26659 C 498.03247,410.79159 494.98207,408.76659 494.29207,408.76659 C 492.54887,408.76659 497.85627,414.2114 504.23937,418.97149 C 507.16967,421.15664 509.31177,423.19988 508.99957,423.51202 C 508.30107,424.21054 500.55647,420.93201 498.16167,418.92398 C 497.19917,418.11693 496.41167,417.91516 496.41167,418.4756 C 496.41167,419.03604 498.21167,420.74199 500.41167,422.26659 C 502.61167,423.79119 504.41167,425.69515 504.41167,426.49761 C 504.41167,428.60509 496.08557,423.64721 490.37737,418.1407 C 482.78417,410.81586 482.08057,412.73161 489.16957,421.42914 C 498.89197,433.35758 500.21097,435.68646 507.92077,454.53522 C 511.10627,462.32298 512.12737,463.89474 514.31187,464.37269 C 515.74177,464.68555 518.03667,465.31664 519.41167,465.77511 C 523.29097,467.06861 523.84467,466.95158 527.73127,464.01659 z M 515.06667,459.93785 C 512.63747,457.25364 512.94587,456.93326 517.95807,456.93326 C 521.38517,456.93326 523.39867,456.2512 526.13687,454.1626 C 528.87307,452.07565 529.60187,451.8285 529.09057,453.16105 C 528.71717,454.13407 528.41167,455.27765 528.41167,455.70235 C 528.41167,456.12706 527.30817,457.66525 525.95947,459.12057 C 522.98997,462.32471 517.59317,462.72963 515.06667,459.93785 z M 518.41167,454.12683 C 518.41167,452.80358 522.00487,450.83025 524.41167,450.83166 L 526.91167,450.83313 L 524.55087,452.79986 C 522.31477,454.66272 518.41167,455.50636 518.41167,454.12683 z M 554.64917,442.19753 C 556.79887,441.31905 559.51967,436.87583 560.10087,433.29465 C 561.69867,423.44824 556.58827,413.32795 547.95627,409.24433 C 545.07557,407.88157 542.15247,406.76659 541.46047,406.76659 C 540.76837,406.76659 537.96237,405.64159 535.22477,404.26659 C 532.48717,402.89159 529.48447,401.76659 528.55207,401.76659 C 527.61957,401.76659 525.79857,401.02547 524.50537,400.11965 C 520.14617,397.06637 508.14657,390.76659 506.68987,390.76659 C 502.92107,390.76659 508.05077,394.69925 521.29527,401.96371 C 523.29397,403.05995 524.18897,404.18351 523.82297,405.13708 C 523.35367,406.36028 522.13097,406.10833 516.69017,403.66721 C 513.07867,402.04685 509.91957,400.92541 509.66987,401.17513 C 509.42007,401.42485 511.61237,403.34759 514.54157,405.44788 C 518.82897,408.52197 519.47047,409.32399 517.83167,409.56096 C 515.34087,409.92115 503.43257,404.70212 501.53927,402.42048 C 499.87317,400.41271 497.41167,400.24811 497.41167,402.14447 C 497.41167,403.67045 507.40527,412.68808 514.41167,417.48426 C 516.88667,419.1785 519.64777,421.39763 520.54727,422.41565 C 521.44687,423.43367 526.39687,428.69794 531.54727,434.11403 L 540.91167,443.96147 L 547.14917,443.33747 C 550.57967,442.99427 553.95467,442.48129 554.64917,442.19753 z M 544.23487,439.0574 C 542.76267,438.83216 541.01337,437.99161 540.34777,437.18952 C 539.30597,435.9343 539.95217,435.78009 544.98647,436.0824 C 550.07757,436.38811 551.14457,436.12457 553.22027,434.04894 C 555.16937,432.09984 555.54027,430.85163 555.25107,427.21542 C 554.87567,422.49432 555.97147,421.16426 556.96737,425.1323 C 558.03337,429.37976 555.62517,435.66568 552.11087,437.80846 C 550.35137,438.88132 548.46167,439.69337 547.91167,439.61302 C 547.36167,439.53267 545.70717,439.28264 544.23487,439.0574 z M 547.14257,430.84557 C 546.56607,428.64103 547.11587,427.76659 549.07837,427.76659 C 550.81997,427.76659 550.79217,430.20596 549.03387,431.66522 C 547.95307,432.56214 547.54527,432.38539 547.14257,430.84557 z M 463.41167,434.76659 C 463.41167,434.21659 462.96167,433.76659 462.41167,433.76659 C 461.86167,433.76659 461.41167,434.21659 461.41167,434.76659 C 461.41167,435.31659 461.86167,435.76659 462.41167,435.76659 C 462.96167,435.76659 463.41167,435.31659 463.41167,434.76659 z M 493.90617,415.76046 C 492.90757,414.65709 491.85817,413.98674 491.57417,414.27079 C 491.29007,414.55485 491.92487,415.44329 492.98467,416.24512 C 495.68877,418.29088 496.03257,418.11008 493.90617,415.76046 z M 575.73477,415.32214 C 577.93707,414.83041 579.05767,413.55931 580.83057,409.54207 C 582.92687,404.79215 582.99867,404.04467 581.75557,399.91394 C 579.62217,392.82519 575.78157,387.15794 570.86047,383.83673 C 568.35847,382.14815 566.08427,380.76659 565.80667,380.76659 C 565.52907,380.76659 563.41417,379.92066 561.10687,378.88675 C 556.78487,376.95008 551.74637,376.15546 537.91537,375.2292 C 533.51737,374.93467 527.37747,374.0351 524.27107,373.23014 C 516.85087,371.30739 515.79617,371.32006 517.44947,373.3121 C 518.15497,374.16213 519.33507,374.62625 520.07187,374.34348 C 520.80877,374.06072 521.41167,374.21064 521.41167,374.67665 C 521.41167,376.03782 526.44917,377.56405 532.80417,378.12831 C 536.04497,378.41606 539.19497,379.17168 539.80417,379.80747 C 540.64047,380.68034 538.34017,380.8351 530.41167,380.43938 C 524.63667,380.15114 518.60727,379.5916 517.01307,379.19596 C 515.05667,378.71043 514.32887,378.82358 514.77417,379.54407 C 515.13697,380.13116 518.80387,381.61196 522.92277,382.83473 C 527.04167,384.05749 530.41167,385.44238 530.41167,385.91226 C 530.41167,387.38163 520.64767,386.84483 516.39047,385.14141 C 511.41587,383.15099 509.95767,384.18385 513.61647,387.10623 C 518.34827,390.88562 531.18697,396.9893 537.91167,398.65646 C 540.66167,399.33823 544.39987,400.76692 546.21887,401.83132 C 548.03777,402.89572 550.31037,403.76659 551.26897,403.76659 C 552.22757,403.76659 555.68937,405.91789 558.96177,408.54726 C 567.66947,415.5438 569.67897,416.80747 571.38107,416.35731 C 572.22287,416.13465 574.18207,415.66882 575.73477,415.32214 z M 569.07837,410.09992 C 567.80257,408.8241 568.43047,407.80823 571.46487,406.23909 C 573.14417,405.37072 575.42717,403.75108 576.53837,402.63989 L 578.55877,400.61956 L 578.23517,403.41077 C 578.02077,405.26115 576.76637,406.97129 574.51377,408.48429 C 570.88337,410.92282 570.12627,411.14784 569.07837,410.09992 z M 567.95897,402.84306 C 567.64507,402.33511 568.71187,400.97697 570.32977,399.82495 C 574.00677,397.20665 575.93717,399.11288 572.46007,401.92854 C 569.92667,403.97996 568.80277,404.20831 567.95897,402.84306 z M 598.91167,387.84385 C 601.66167,386.80506 606.38517,385.39268 609.40837,384.70523 C 618.93347,382.53929 628.87867,375.76659 622.53417,375.76659 C 621.50147,375.76659 620.12967,375.13165 619.48557,374.35562 C 617.82257,372.3518 619.59317,371.52444 624.70587,371.9162 C 633.87457,372.61876 641.28097,368.78595 652.87037,357.34099 C 658.29037,351.98857 657.81057,350.5021 651.67367,353.63293 C 649.14387,354.92354 647.28727,355.30772 646.35737,354.733 C 644.66957,353.68993 644.48817,353.88544 654.41167,346.05464 C 660.29267,341.41384 662.54787,338.85516 664.85867,334.20143 C 666.47947,330.93727 667.96787,327.17627 668.16607,325.84365 C 668.36427,324.51104 668.95057,322.62812 669.46907,321.65939 C 670.69867,319.36182 670.69257,309.76659 669.46147,309.76659 C 668.93887,309.76659 666.80137,311.90409 664.71147,314.51659 C 653.06237,329.07879 636.99187,341.8 619.41167,350.37526 C 614.18667,352.92391 608.78667,355.7815 607.41167,356.72548 C 606.03667,357.66945 602.66167,359.02624 599.91167,359.74058 C 590.83117,362.09933 582.05727,366.76659 586.70367,366.76659 C 588.46337,366.76659 610.60007,358.32198 616.85647,355.26398 C 623.55357,351.99063 634.61667,345.73415 637.86847,343.38113 C 639.30157,342.34413 640.76897,341.79049 641.12927,342.15083 C 642.18707,343.20864 630.31717,354.06321 625.41167,356.52389 C 622.93667,357.76541 618.66167,360.04205 615.91167,361.5831 C 610.58847,364.56616 597.84797,369.85502 590.41167,372.16873 C 586.36327,373.42835 586.21277,373.57758 588.91167,373.65585 C 590.56167,373.7037 594.36577,373.08977 597.36517,372.29155 C 600.36457,371.49334 603.02707,371.04868 603.28187,371.30342 C 603.91937,371.94091 603.70457,372.08683 596.91167,375.63143 C 591.78377,378.30724 591.31997,378.76261 593.72067,378.76445 C 597.86357,378.76761 596.13877,380.39406 589.37837,382.85901 C 586.09667,384.05557 583.41167,385.42428 583.41167,385.90058 C 583.41167,386.37689 584.35857,387.71346 585.51587,388.87076 C 587.89087,391.24578 590.41877,391.052 598.91167,387.84385 z M 582.41167,380.20757 C 582.41167,379.96503 581.71017,379.76659 580.85267,379.76659 C 579.99517,379.76659 579.57627,380.22393 579.92177,380.7829 C 580.49257,381.70648 582.41167,381.26305 582.41167,380.20757 z M 588.59917,379.08348 C 587.87737,378.79461 587.01477,378.83013 586.68257,379.16242 C 586.35027,379.49471 586.94087,379.73106 587.99507,379.68764 C 589.15997,379.63966 589.39697,379.4027 588.59917,379.08348 z M 564.41167,366.90545 C 574.14397,365.03675 583.79047,360.68449 590.25337,355.24633 C 594.07227,352.03298 597.22957,343.30591 595.54767,340.61272 C 594.92287,339.61227 594.41167,338.20302 594.41167,337.48105 C 594.41167,334.45883 578.38697,331.9216 575.25907,334.44857 C 572.59947,336.59731 548.74097,343.63905 540.41167,344.73367 C 526.88377,346.51149 525.41167,346.87649 525.41167,348.45295 C 525.41167,349.68188 526.89577,349.8068 534.66167,349.23151 C 539.74917,348.85463 546.61167,347.9275 549.91167,347.17121 C 557.23417,345.49307 557.67517,345.47607 557.20387,346.89008 C 556.62317,348.63227 541.80517,352.56253 532.91167,353.33324 C 524.13907,354.09348 518.45037,356.20531 520.27097,358.02591 C 521.98727,359.74216 545.82637,359.12063 549.41257,357.26614 C 551.00747,356.44139 552.88117,355.76659 553.57637,355.76659 C 556.11917,355.76659 551.93277,358.52195 545.91167,360.81124 C 540.82287,362.74608 537.89967,363.10572 526.66187,363.17955 C 519.37457,363.22742 513.41897,363.49159 513.42727,363.76659 C 513.48957,365.83168 515.89217,366.81309 521.81547,367.19293 C 525.55077,367.43247 528.90047,367.93379 529.25927,368.30699 C 530.09547,369.17664 558.47637,368.04508 564.41167,366.90545 z M 564.96167,359.93187 C 565.48417,359.47278 568.16167,358.29527 570.91167,357.31518 C 576.88167,355.18752 582.55237,351.6513 587.66167,346.86996 L 591.41167,343.36069 L 591.41167,346.17036 C 591.41167,348.24928 590.11167,350.20056 586.41307,353.67293 C 582.36487,357.47361 580.30957,358.59407 575.60287,359.56622 C 568.84917,360.96119 563.58437,361.1421 564.96167,359.93187 z M 573.16167,351.98973 C 572.19917,351.78635 571.41167,351.21208 571.41167,350.71359 C 571.41167,349.36869 579.29737,345.59214 581.23707,346.00809 C 582.46837,346.27212 582.06437,346.8172 579.71137,348.06687 C 577.95127,349.00169 576.15127,350.34997 575.71137,351.06304 C 575.27157,351.7761 574.12417,352.19312 573.16167,351.98973 z M 608.98757,350.10321 C 614.64977,347.511 614.74647,347.40084 612.60847,345.98123 C 609.02207,343.59997 610.05017,342.76659 616.57417,342.76659 C 621.79067,342.76659 623.49577,342.27944 627.68247,339.59284 L 632.62837,336.41909 L 629.01997,334.85759 C 627.03547,333.99876 625.41167,333.00443 625.41167,332.64797 C 625.41167,331.81921 629.19857,330.79791 632.33707,330.78024 C 633.67107,330.77273 637.94607,329.17625 641.83707,327.2325 C 647.49417,324.40655 649.46397,322.78912 651.66817,319.16038 L 654.42457,314.62234 L 649.27017,314.94446 C 641.57817,315.42518 642.05227,313.34726 650.11917,311.22312 C 659.54237,308.74185 663.23837,306.71642 668.79447,300.98901 C 674.48347,295.12451 678.41367,288.67599 679.40327,283.58251 L 680.11907,279.89844 L 675.62157,283.33251 C 671.14727,286.74891 666.87497,287.91892 667.64647,285.51659 C 667.86727,284.82909 670.19557,283.09189 672.82047,281.65615 C 676.04847,279.89059 678.39697,277.62503 680.07677,274.65615 C 681.44277,272.24189 683.33667,269.36659 684.28547,268.26659 C 685.23437,267.16659 687.10807,263.56659 688.44927,260.26659 C 690.41337,255.43428 690.84707,252.75568 690.67777,246.503 C 690.46807,238.75847 689.74977,236.37514 686.27697,231.90006 L 684.44057,229.53352 L 682.54807,233.90006 C 675.81267,249.44096 668.62457,261.88155 660.66897,271.76659 C 650.33147,284.61133 632.74107,301.42436 619.41167,311.20078 C 615.83667,313.82285 612.68667,316.30099 612.41167,316.70775 C 611.94117,317.40369 602.58257,323.08463 595.35777,327.05997 C 593.06237,328.32295 592.41187,329.16677 593.15817,329.91309 C 594.24667,331.00161 603.19737,326.59367 612.09187,320.58873 C 614.39097,319.03655 616.49347,317.76659 616.76397,317.76659 C 617.03457,317.76659 621.22857,314.81298 626.08387,311.20301 C 636.37267,303.55317 659.78147,280.77437 663.41167,274.8798 C 665.93037,270.79011 668.41167,269.49186 668.41167,272.26378 C 668.41167,273.8525 660.74677,284.72713 657.08817,288.32917 C 655.89107,289.5077 653.89917,291.00408 652.66167,291.65446 C 651.42417,292.30483 650.41167,293.399 650.41167,294.08593 C 650.41167,295.69945 642.17107,303.62537 631.40877,312.36317 C 620.78617,320.98759 615.59747,324.58236 607.66167,328.81548 C 604.22417,330.64911 601.41167,332.73824 601.41167,333.45797 C 601.41167,335.17297 603.42407,335.07184 605.85287,333.23479 C 606.92047,332.42728 608.40457,331.76659 609.15077,331.76659 C 609.89707,331.76659 614.55067,329.06659 619.49227,325.76659 C 628.69377,319.62174 630.75677,318.70388 629.80777,321.17689 C 628.83587,323.70943 611.31377,335.72553 605.27607,337.99992 C 603.98727,338.4854 603.74647,339.55672 604.14037,343.05199 C 604.49917,346.23503 604.15197,348.23338 602.91107,350.12726 C 600.74157,353.43827 601.71127,353.43443 608.98757,350.10321 z M 538.41167,339.23446 C 542.53667,338.39308 547.71167,337.45664 549.91167,337.15348 C 556.25117,336.2799 568.25537,331.7062 576.41167,327.05676 C 580.53667,324.70535 584.42127,322.77812 585.04407,322.77403 C 585.66687,322.76994 587.91687,321.04633 590.04407,318.94379 C 592.17127,316.84125 594.69917,314.83037 595.66167,314.47517 C 596.62417,314.11998 597.41167,313.14024 597.41167,312.29797 C 597.41167,311.45571 597.86167,310.76659 598.41167,310.76659 C 598.96167,310.76659 599.41167,310.18159 599.41167,309.46659 C 599.41167,308.75159 599.91607,307.66222 600.53247,307.04577 C 602.70207,304.87625 606.40247,294.21915 606.40707,290.12737 C 606.41397,283.99254 604.15867,281.87528 597.41167,281.68258 C 590.18527,281.47618 585.98407,282.93287 582.76197,286.76221 C 574.83457,296.1833 552.70837,309.8012 530.07727,319.18767 C 524.66837,321.43107 520.39337,323.71659 520.57727,324.26659 C 520.76117,324.81659 521.13667,325.1799 521.41167,325.07395 C 521.68667,324.96799 525.96167,323.47014 530.91167,321.74538 C 535.86167,320.02062 543.83977,316.64745 548.64067,314.24945 C 558.11617,309.51653 561.06397,309.8213 554.19977,314.82419 C 548.84277,318.72861 544.09307,321.20362 533.92697,325.38812 C 525.22867,328.96847 522.67087,331.47305 528.71427,330.49234 C 530.67827,330.17362 537.51307,328.02936 543.90277,325.72731 C 555.45527,321.56516 557.90387,321.26373 555.37107,324.31551 C 553.41177,326.67633 548.11487,329.09738 536.91167,332.75268 C 525.68077,336.41704 525.08857,336.76103 525.98587,339.09937 C 526.77617,341.15889 528.86547,341.1816 538.41167,339.23446 z M 580.41167,317.95833 C 580.41167,317.39454 580.82517,316.78326 581.33037,316.59992 C 583.81267,315.69932 594.41167,305.21811 594.41167,303.66408 C 594.41167,302.68538 594.86167,301.60651 595.41167,301.26659 C 595.96167,300.92667 596.41167,298.39212 596.41167,295.63425 C 596.41167,291.39893 596.68357,290.67151 598.16167,290.95189 C 599.41717,291.19004 599.99387,292.41172 600.20237,295.27522 C 600.59927,300.72498 596.19457,309.103 590.41167,313.89763 C 585.86027,317.67127 580.41167,319.88378 580.41167,317.95833 z M 582.41167,307.87018 C 582.41167,306.97708 589.02997,300.76659 589.98167,300.76659 C 590.99147,300.76659 588.11417,305.31799 586.04467,306.99435 C 583.67087,308.91718 582.41167,309.22074 582.41167,307.87018 z M 526.41167,314.98403 C 534.57877,312.83327 550.32487,304.24232 563.41167,294.79708 C 566.43667,292.61382 569.84337,290.40567 570.98217,289.89006 C 573.83727,288.59736 582.59147,278.31034 585.93567,272.31836 C 589.38767,266.13323 591.38447,258.77798 591.39987,252.1909 C 591.40947,248.08581 590.94237,246.67427 588.95717,244.80931 C 586.88777,242.86518 585.75027,242.58308 581.70717,243.01128 C 573.77607,243.85125 569.52527,246.29286 562.37687,254.11432 C 552.78957,264.6043 533.48397,278.85831 516.41167,288.05205 C 509.97337,291.51918 508.68427,293.55545 513.30707,292.95595 C 516.80507,292.50232 527.69597,286.7658 537.22567,280.35744 C 541.79837,277.28247 545.73587,274.76659 545.97567,274.76659 C 546.21547,274.76659 546.41167,275.57412 546.41167,276.5611 C 546.41167,279.3616 537.80167,285.38882 521.48027,294.01362 C 517.21067,296.26982 515.04707,298.76659 517.36157,298.76659 C 518.95177,298.76659 526.68447,294.73067 535.36567,289.36969 C 539.46537,286.83799 543.25497,284.76659 543.78697,284.76659 C 544.31897,284.76659 545.53247,284.06228 546.48367,283.20145 C 547.43757,282.3382 548.47077,282.05315 548.78757,282.56582 C 550.03687,284.5871 528.03087,299.95938 520.66167,302.21321 C 519.34187,302.61687 518.41167,303.70035 518.41167,304.83398 C 518.41167,305.89691 518.59977,306.76659 518.82957,306.76659 C 519.32057,306.76659 537.52537,298.78783 545.28077,295.17361 C 548.23387,293.79744 550.86637,292.88794 551.13097,293.15251 C 552.38117,294.40275 549.03287,296.53109 535.03737,303.38215 C 521.18687,310.16229 519.85747,311.0467 519.26837,313.87275 C 518.56247,317.25868 518.06687,317.18159 526.41167,314.98403 z M 568.03227,281.96172 C 567.73657,281.48315 569.31407,279.33097 571.53787,277.1791 C 576.77637,272.11006 579.62367,266.49907 580.12027,260.26659 C 580.84947,251.11394 584.36747,251.88258 584.39637,261.20087 C 584.41337,266.66345 581.71227,273.25567 578.15287,276.43882 C 574.53697,279.67244 568.61477,282.90424 568.03227,281.96172 z M 571.90257,267.1186 C 573.89717,262.32529 576.06227,260.01058 577.33617,261.30945 C 578.38667,262.38046 573.76477,269.82398 571.60567,270.53844 C 570.61027,270.86783 570.68087,270.05448 571.90257,267.1186 z M 617.16797,306.51899 L 627.70047,298.2714 L 624.00667,297.23504 C 620.08957,296.13601 620.15207,294.76659 624.11937,294.76659 C 627.48487,294.76659 637.43697,289.36746 641.16907,285.51689 L 644.32177,282.26415 L 639.73807,282.08676 C 632.53297,281.80791 632.84237,280.40811 640.68177,277.81653 C 648.58607,275.20346 652.15497,272.43401 659.01147,263.59255 C 664.21997,256.8763 664.62857,255.08594 660.46137,257.24091 C 657.50677,258.76878 652.41167,259.32953 652.41167,258.12683 C 652.41167,257.12886 655.76017,254.83375 657.26777,254.79839 C 658.75677,254.76347 665.88347,249.43435 668.67627,246.26751 C 670.73707,243.93064 678.41167,228.4636 678.41167,226.64718 C 678.41167,225.96595 678.94797,223.92545 679.60347,222.11272 C 681.16627,217.79104 680.36697,217.21393 676.27447,219.70896 C 671.40917,222.67516 669.60007,222.30479 672.89257,219.01659 C 677.21417,214.70051 681.41167,204.89137 681.41167,199.10808 C 681.41167,188.9602 675.61317,173.01813 671.85077,172.82192 C 671.26727,172.79149 670.20327,175.12909 669.48647,178.01659 C 665.55907,193.83632 658.20717,210.45489 645.92907,231.26659 C 638.82207,243.31306 632.45267,251.37978 619.34417,264.93561 C 613.91027,270.55496 609.66937,275.3576 609.91997,275.60815 C 611.44987,277.1381 633.88407,255.74101 641.21297,245.76175 C 643.02877,243.28941 647.19327,237.66659 650.46767,233.26659 C 653.74197,228.86659 658.02007,221.95522 659.97437,217.90799 C 661.92877,213.86077 663.74677,210.76835 664.01437,211.03597 C 665.20257,212.22415 658.43257,226.25267 651.59707,236.76659 C 642.75567,250.36574 636.53587,257.84572 623.14937,270.97771 C 617.49697,276.52262 613.39197,281.33758 613.58087,282.20102 C 613.79947,283.2001 617.44237,280.32518 624.31677,273.72834 C 630.03957,268.23666 634.92617,263.94776 635.17587,264.19745 C 636.39027,265.41186 628.20067,274.57912 617.14557,284.38012 C 614.55387,286.67779 613.44327,288.64306 612.90737,291.88012 C 612.50797,294.29268 611.33307,298.03861 610.29647,300.20442 C 609.25987,302.37023 608.41167,304.6453 608.41167,305.26014 C 608.41167,305.87498 607.28667,307.90288 605.91167,309.76659 C 600.06197,317.6954 604.54817,316.40107 617.16797,306.51899 z M 614.06187,294.00952 C 613.54647,293.17557 622.44907,283.76659 623.75357,283.76659 C 625.43947,283.76659 624.10147,286.66042 621.16167,289.37259 C 616.26287,293.89204 614.64307,294.94996 614.06187,294.00952 z M 602.25587,272.34717 C 605.23567,270.80624 621.41167,254.2596 621.41167,252.75242 C 621.41167,252.24474 620.73667,252.08838 619.91167,252.40496 C 619.08667,252.72155 618.41167,253.33742 618.41167,253.77358 C 618.41167,254.20973 616.83667,254.56659 614.91167,254.56659 C 612.98667,254.56659 611.41167,254.4503 611.41167,254.30817 C 611.41167,253.76362 622.07947,247.0832 625.44777,245.51848 C 627.39257,244.61502 630.09627,242.61374 631.45597,241.0712 C 635.07177,236.96932 641.69167,226.71319 641.10327,226.12481 C 640.82507,225.84668 639.22807,226.3273 637.55427,227.19285 C 635.88047,228.05841 633.25117,228.76634 631.71137,228.76603 C 629.24777,228.76553 629.66897,228.29967 635.22097,224.88465 C 638.69107,222.7502 642.54507,220.05045 643.78547,218.88521 C 645.02577,217.71997 646.54697,216.76659 647.16587,216.76659 C 648.33817,216.76659 656.02227,202.95302 657.04807,199.00151 L 657.63607,196.73642 L 652.62867,199.25151 C 644.31207,203.42869 642.41717,202.05823 649.93717,197.3049 C 656.06397,193.43219 660.57257,185.67218 663.81017,173.42746 C 667.77447,158.43426 667.42967,157.40327 660.41167,163.26659 C 654.61827,168.1069 651.90337,167.93083 656.55687,163.01659 C 664.17117,154.97565 668.41167,146.31589 668.41167,138.80735 C 668.41167,132.64645 663.34947,120.66833 657.61827,113.26828 C 654.47967,109.21569 651.65477,105.86993 651.34067,105.83326 C 651.02667,105.79659 650.69257,108.35409 650.59837,111.51659 C 650.22237,124.13436 646.01417,150.94584 643.73157,155.26659 C 643.15037,156.36659 642.37397,159.06659 642.00617,161.26659 C 641.04037,167.04406 642.91477,163.78172 645.01137,156.03646 C 645.94477,152.58803 647.03647,149.76659 647.43727,149.76659 C 650.35247,149.76659 641.51387,177.70903 633.36127,194.26659 C 626.40807,208.38839 612.03837,230.40124 603.58767,239.87669 C 600.33317,243.52594 599.42647,245.23782 599.92177,246.79846 C 600.47947,248.55554 600.81987,248.67314 602.15267,247.56924 C 604.07897,245.97376 616.14867,231.48568 619.27467,227.01659 C 620.52487,225.22909 621.94387,223.76659 622.42777,223.76659 C 623.72997,223.76659 621.60857,229.17818 619.36037,231.59126 C 618.28857,232.7417 617.41167,233.97899 617.41167,234.3408 C 617.41167,235.73253 610.31467,244.51158 604.94137,249.76659 C 599.41787,255.16853 595.75087,260.43915 596.79187,261.48007 C 597.35227,262.04051 604.23417,256.89033 606.38037,254.30438 C 607.08227,253.45859 608.06727,252.76659 608.56937,252.76659 C 610.42947,252.76659 606.87797,257.47011 599.74877,264.44831 C 595.71337,268.39826 592.41167,272.11076 592.41167,272.69831 C 592.41167,274.24592 599.04137,274.00944 602.25587,272.34717 z M 601.37707,236.83444 C 602.48037,234.67176 603.84687,232.61564 604.41377,232.2653 C 605.42057,231.64309 622.54147,206.24695 623.28927,204.26659 C 623.49697,203.71659 625.29407,200.56659 627.28287,197.26659 C 632.05407,189.34958 641.53947,167.78234 640.78617,166.56354 C 640.46037,166.03637 638.72597,169.1289 636.93187,173.43582 C 627.95637,194.98237 613.43037,218.72742 600.54607,232.91431 C 597.83717,235.89699 596.40207,238.29919 596.76467,239.24396 C 597.73597,241.77517 599.26367,240.97711 601.37707,236.83444 z " id="path2206"/>
</svg>